<svg width="232" height="158" viewBox="0 0 232 158" fill="none" xmlns="http://www.w3.org/2000/svg">
<mask id="mask0_2591_585" style="mask-type:luminance" maskUnits="userSpaceOnUse" x="0" y="12" width="211" height="134">
<path d="M174.29 136.371C185.837 131.415 195.875 123.604 202.617 111.243C213.15 91.9321 212.572 66.5019 201.354 47.681C192.968 33.6121 179.262 26.0914 164.016 25.2422C145.155 24.1918 126.738 33.4458 107.94 27.6213C97.8865 24.5061 89.0758 17.7026 79.0115 14.6288C58.9133 8.49159 34.5177 17.994 19.1579 32.3485C-17.3329 66.4508 2.04345 127.279 45.8433 139.136C67.2707 144.936 90.1278 145.497 112.372 145.209C131.707 144.959 155.086 144.612 174.29 136.371Z" fill="white"/>
</mask>
<g mask="url(#mask0_2591_585)">
<path opacity="0.25" d="M150.339 66.5594C150.36 66.5421 150.378 66.5248 150.398 66.5075C150.44 66.4706 150.482 66.4334 150.521 66.3962C150.542 66.376 150.56 66.3554 150.58 66.3352C150.614 66.3006 150.647 66.2663 150.677 66.2317C150.696 66.2105 150.712 66.1893 150.729 66.168C150.757 66.1338 150.784 66.0995 150.808 66.0652C150.823 66.0443 150.837 66.0231 150.851 66.0019C150.874 65.9669 150.896 65.932 150.915 65.8971C150.927 65.8768 150.937 65.8563 150.948 65.836C150.966 65.8001 150.983 65.7639 150.998 65.728C151.006 65.7087 151.013 65.6895 151.02 65.6705C151.034 65.6327 151.045 65.5948 151.055 65.5569C151.06 65.5396 151.065 65.5223 151.068 65.5053C151.077 65.4645 151.084 65.4241 151.088 65.3833C151.09 65.3689 151.092 65.3549 151.093 65.3405C151.097 65.2954 151.097 65.2504 151.095 65.2057C151.095 65.1959 151.095 65.1861 151.095 65.1763C151.091 65.1237 151.084 65.0715 151.074 65.0196C151.074 65.0173 151.074 65.0154 151.073 65.0131C151.005 64.6745 150.788 64.3442 150.437 64.0344C150.363 63.9691 150.282 63.9048 150.196 63.8415C150.505 63.6841 150.785 63.517 151.029 63.3394C151.109 63.2813 151.183 63.2228 151.254 63.1637C151.276 63.1451 151.296 63.1262 151.317 63.1076C151.363 63.0674 151.409 63.027 151.451 62.9865C151.474 62.9643 151.494 62.9418 151.516 62.9196C151.552 62.882 151.588 62.8448 151.621 62.8073C151.641 62.7841 151.659 62.7609 151.678 62.7377C151.708 62.7005 151.737 62.6633 151.764 62.6261C151.78 62.6032 151.795 62.5801 151.81 62.5569C151.835 62.519 151.859 62.4811 151.88 62.4433C151.893 62.4211 151.904 62.3989 151.915 62.3767C151.935 62.3375 151.953 62.2983 151.97 62.2588C151.978 62.2379 151.986 62.2171 151.994 62.1965C152.009 62.1554 152.022 62.1139 152.032 62.0728C152.037 62.0542 152.042 62.0352 152.046 62.0166C152.056 61.9722 152.063 61.9281 152.068 61.8837C152.07 61.8681 152.072 61.8527 152.074 61.8371C152.078 61.7881 152.078 61.7391 152.076 61.6905C152.076 61.6797 152.076 61.6693 152.076 61.6585C152.072 61.6014 152.065 61.5446 152.053 61.4878C152.053 61.4855 152.053 61.4832 152.052 61.4809C151.809 60.2773 149.857 59.1694 146.631 58.6258C142.187 57.8773 136.863 58.459 134.103 59.9176C130.247 59.3437 125.68 59.974 123.767 61.368C123.366 61.6598 123.115 61.9624 122.999 62.2654C122.857 62.6339 122.918 63.0022 123.164 63.3508C123.166 63.3537 123.168 63.357 123.17 63.3599C123.267 63.4954 123.392 63.628 123.544 63.7562C123.549 63.7605 123.554 63.7651 123.559 63.7693C123.635 63.832 123.716 63.8937 123.804 63.9544C123.81 63.9586 123.817 63.9629 123.823 63.9671C123.91 64.0262 124.003 64.0843 124.102 64.1411C124.105 64.1434 124.109 64.1454 124.113 64.1477C124.211 64.2038 124.317 64.2587 124.427 64.3122C124.444 64.3207 124.462 64.3288 124.479 64.3373C124.701 64.4424 124.944 64.5423 125.209 64.6357C125.234 64.6442 125.257 64.6527 125.282 64.6612C125.412 64.7059 125.547 64.7493 125.687 64.7908C125.709 64.7976 125.733 64.8038 125.756 64.8103C125.885 64.8479 126.019 64.8841 126.157 64.9187C126.18 64.9246 126.202 64.9305 126.226 64.9364C126.376 64.9732 126.531 65.0082 126.691 65.0418C126.726 65.0493 126.761 65.0562 126.796 65.0633C126.961 65.0966 127.13 65.129 127.304 65.1583C128.735 65.3993 130.279 65.4681 131.759 65.3898C131.66 65.568 131.497 65.742 131.271 65.9072L128.308 68.0657C127.255 68.8325 124.754 69.7893 123.303 70.3097C124.07 70.6077 125.27 70.959 126.978 71.1646L126.977 71.1653C126.994 71.1676 127.013 71.1692 127.031 71.1715C127.057 71.1744 127.084 71.1774 127.11 71.1803C127.238 71.195 127.368 71.2087 127.502 71.2218C127.525 71.224 127.547 71.2263 127.57 71.2283C127.719 71.2423 127.872 71.2547 128.027 71.2665C128.06 71.2688 128.093 71.271 128.126 71.2733C128.272 71.2838 128.422 71.2929 128.575 71.3011C128.591 71.3021 128.607 71.303 128.624 71.304C128.788 71.3122 128.956 71.319 129.128 71.3246C129.168 71.3259 129.208 71.3269 129.249 71.3282C129.424 71.3331 129.601 71.337 129.784 71.3386C130.45 70.5862 131.655 69.2657 132.365 68.7489C132.828 68.4117 133.817 67.8796 134.758 67.3994C135.001 67.513 135.267 67.621 135.554 67.7222C135.582 67.732 135.61 67.7418 135.638 67.7516C135.786 67.8025 135.94 67.8522 136.1 67.8998C136.126 67.9073 136.153 67.9148 136.179 67.9224C136.327 67.9654 136.48 68.0066 136.637 68.0464C136.664 68.0533 136.689 68.0601 136.716 68.0666C136.888 68.1091 137.065 68.1489 137.248 68.1871C137.288 68.1956 137.328 68.2034 137.368 68.2116C137.557 68.2498 137.749 68.2863 137.949 68.32C142.43 69.0747 147.885 68.3585 150.133 66.7207C150.206 66.6672 150.275 66.6136 150.339 66.5594Z" fill="#AD8960"/>
</g>
<mask id="mask1_2591_585" style="mask-type:luminance" maskUnits="userSpaceOnUse" x="0" y="12" width="211" height="134">
<path d="M174.29 136.371C185.837 131.415 195.875 123.604 202.617 111.243C213.15 91.9321 212.572 66.5019 201.354 47.681C192.968 33.6121 179.262 26.0914 164.016 25.2422C145.155 24.1918 126.738 33.4458 107.94 27.6213C97.8865 24.5061 89.0758 17.7026 79.0115 14.6288C58.9133 8.49159 34.5177 17.994 19.1579 32.3485C-17.3329 66.4508 2.04345 127.279 45.8433 139.136C67.2707 144.936 90.1278 145.497 112.372 145.209C131.707 144.959 155.086 144.612 174.29 136.371Z" fill="white"/>
</mask>
<g mask="url(#mask1_2591_585)">
<path d="M135.827 61.7013C138.202 59.3259 138.202 55.4746 135.827 53.0992C133.453 50.7238 129.603 50.7238 127.228 53.0992C124.854 55.4746 124.854 59.3259 127.228 61.7013C129.603 64.0767 133.453 64.0767 135.827 61.7013Z" fill="#116872"/>
<path opacity="0.32" d="M135.55 52.8383C135.758 53.452 135.873 54.1088 135.873 54.7927C135.873 58.1521 133.15 60.8754 129.792 60.8754C128.25 60.8754 126.843 60.3002 125.771 59.3538C126.585 61.7542 128.855 63.482 131.529 63.482C134.888 63.482 137.61 60.7588 137.61 57.3994C137.61 55.5827 136.813 53.9527 135.55 52.8383Z" fill="#116872"/>
<path d="M122.408 61.2012C125.347 61.2012 127.729 58.8183 127.729 55.8788C127.729 52.9393 125.347 50.5564 122.408 50.5564C119.47 50.5564 117.088 52.9393 117.088 55.8788C117.088 58.8183 119.47 61.2012 122.408 61.2012Z" fill="#116872"/>
<path opacity="0.32" d="M125.926 51.888C126.108 52.425 126.208 52.9995 126.208 53.5979C126.208 56.5372 123.827 58.9203 120.888 58.9203C119.539 58.9203 118.308 58.4169 117.37 57.589C118.082 59.6891 120.068 61.2012 122.408 61.2012C125.347 61.2012 127.729 58.8184 127.729 55.8788C127.729 54.289 127.031 52.8631 125.926 51.888Z" fill="#116872"/>
<path d="M133.391 56.1943C135.974 53.61 135.974 49.4199 133.391 46.8355C130.807 44.2512 126.619 44.2512 124.035 46.8355C121.452 49.4199 121.452 53.61 124.035 56.1943C126.619 58.7787 130.807 58.7787 133.391 56.1943Z" fill="#116872"/>
<path opacity="0.32" d="M133.089 46.5516C133.315 47.2191 133.44 47.9337 133.44 48.6777C133.44 52.3326 130.478 55.2954 126.824 55.2954C125.147 55.2954 123.616 54.6696 122.45 53.64C123.336 56.2513 125.805 58.1313 128.714 58.1313C132.368 58.1313 135.33 55.1684 135.33 51.5135C135.329 49.5372 134.462 47.7643 133.089 46.5516Z" fill="#116872"/>
<path d="M125.449 61.3363V65.7632C125.449 67.3361 124.726 69.6316 124.278 70.9058C125.336 71.321 127.064 71.6687 129.082 70.8013C128.859 69.361 128.49 66.8232 128.49 65.7632C128.49 64.9971 128.682 63.6518 128.874 62.5053C129.05 61.4476 129.635 60.512 130.485 59.8882C130.963 59.5373 131.412 59.1485 131.806 58.7048L132.29 58.1597C132.29 58.1597 128.912 60.6518 127.729 60.4405C126.531 60.2267 123.929 57.3994 123.929 57.3994L125.049 59.6401C125.312 60.1667 125.449 60.7474 125.449 61.3363Z" fill="#331B11"/>
<path opacity="0.23" d="M129.082 70.8013C128.859 69.361 128.489 66.8232 128.489 65.7633C128.489 64.9971 128.682 63.6518 128.874 62.5053C129.05 61.4476 129.635 60.512 130.485 59.8882C130.963 59.5373 131.412 59.1485 131.806 58.7048L132.29 58.1597C132.29 58.1597 130.807 59.2536 129.462 59.9303C129.399 59.9724 129.336 60.0139 129.271 60.055C128.382 60.6214 127.737 61.5165 127.491 62.5602C127.26 63.5434 127.205 69.4237 127.229 71.3001C127.808 71.2351 128.43 71.0814 129.082 70.8013Z" fill="#331B11"/>
</g>
<mask id="mask2_2591_585" style="mask-type:luminance" maskUnits="userSpaceOnUse" x="0" y="12" width="211" height="134">
<path d="M174.424 136.389C185.981 131.426 196.026 123.605 202.774 111.226C213.314 91.8884 212.736 66.423 201.509 47.576C193.117 33.4875 179.4 25.9564 164.143 25.106C145.267 24.0542 126.836 33.321 108.023 27.4884C97.962 24.3689 89.1445 17.5559 79.0724 14.4779C58.9588 8.33221 34.5443 17.8478 19.1727 32.2222C-17.3463 66.3717 2.04503 127.285 45.8786 139.158C67.3226 144.966 90.1974 145.527 112.458 145.239C131.809 144.989 155.206 144.642 174.424 136.389Z" fill="white"/>
</mask>
<g mask="url(#mask2_2591_585)">
<path opacity="0.3" d="M186.601 110.013C184.124 107.541 184.324 103.598 187.114 101.447C189.291 99.7685 190.454 98.0002 190.454 96.174C190.454 90.8183 180.455 85.9598 164.214 82.3973C160.989 81.6899 158.906 78.8985 158.962 75.7538C158.962 75.7365 158.962 75.7195 158.962 75.7022C158.962 68.3281 130.873 62.3506 96.2237 62.3506C61.5743 62.3506 33.4854 68.3281 33.4854 75.7022C33.4854 75.8338 33.4942 75.9647 33.5121 76.0953C33.9253 79.1361 32.1513 82.0575 29.0163 82.7829C13.7877 86.3068 4.48926 91.0093 4.48926 96.174C4.48926 98.8665 7.01832 101.433 11.5961 103.772C14.5791 105.297 15.6312 108.722 14.1891 111.634C13.9196 112.178 13.7812 112.731 13.7812 113.291C13.7812 121.936 46.7115 128.944 87.3332 128.944C92.0033 128.944 96.5703 128.85 100.999 128.673C105.428 128.85 109.994 128.944 114.665 128.944C155.286 128.944 188.217 121.936 188.217 113.291C188.217 112.167 187.659 111.07 186.601 110.013Z" fill="#7C6D5F"/>
</g>
<mask id="mask3_2591_585" style="mask-type:luminance" maskUnits="userSpaceOnUse" x="0" y="12" width="211" height="134">
<path d="M174.424 136.389C185.981 131.426 196.026 123.605 202.774 111.226C213.314 91.8884 212.736 66.423 201.509 47.576C193.117 33.4875 179.4 25.9564 164.143 25.106C145.267 24.0542 126.836 33.321 108.023 27.4884C97.962 24.3689 89.1445 17.5559 79.0724 14.4779C58.9588 8.33221 34.5443 17.8478 19.1727 32.2222C-17.3463 66.3717 2.04503 127.285 45.8786 139.158C67.3226 144.966 90.1974 145.527 112.458 145.239C131.809 144.989 155.206 144.642 174.424 136.389Z" fill="white"/>
</mask>
<g mask="url(#mask3_2591_585)">
<mask id="mask4_2591_585" style="mask-type:luminance" maskUnits="userSpaceOnUse" x="4" y="62" width="187" height="67">
<path d="M186.601 110.013C184.124 107.541 184.324 103.598 187.114 101.447C189.291 99.7685 190.454 98.0002 190.454 96.174C190.454 90.8183 180.455 85.9598 164.214 82.3973C160.989 81.6899 158.906 78.8985 158.962 75.7538C158.962 75.7365 158.962 75.7195 158.962 75.7022C158.962 68.3281 130.873 62.3506 96.2237 62.3506C61.5743 62.3506 33.4854 68.3281 33.4854 75.7022C33.4854 75.8338 33.4942 75.9647 33.5121 76.0953C33.9253 79.1361 32.1513 82.0575 29.0163 82.7829C13.7877 86.3068 4.48926 91.0093 4.48926 96.174C4.48926 98.8665 7.01832 101.433 11.5961 103.772C14.5791 105.297 15.6312 108.722 14.1891 111.634C13.9196 112.178 13.7812 112.731 13.7812 113.291C13.7812 121.936 46.7115 128.944 87.3332 128.944C92.0033 128.944 96.5703 128.85 100.999 128.673C105.428 128.85 109.994 128.944 114.665 128.944C155.286 128.944 188.217 121.936 188.217 113.291C188.217 112.167 187.659 111.07 186.601 110.013Z" fill="white"/>
</mask>
<g mask="url(#mask4_2591_585)">
<path opacity="0.52" d="M195.824 116.035L199.069 110.612L121.545 87.8327L170.841 73.4618L170.652 67.1448L110.659 84.6341L29.9971 60.9328L26.7524 66.3554L99.7663 87.8095L64.6557 98.0452L4.22322 78.2994L0.978516 83.722L54.1701 101.102L1.47487 116.464L1.66381 122.781L64.4766 104.469L169.892 138.913L173.136 133.49L74.9619 101.412L110.652 91.0083L195.824 116.035Z" fill="#FFF7E1"/>
</g>
</g>
<mask id="mask5_2591_585" style="mask-type:luminance" maskUnits="userSpaceOnUse" x="0" y="12" width="211" height="134">
<path d="M174.424 136.389C185.981 131.426 196.026 123.605 202.774 111.226C213.314 91.8884 212.736 66.423 201.509 47.576C193.117 33.4875 179.4 25.9564 164.143 25.106C145.267 24.0542 126.836 33.321 108.023 27.4884C97.962 24.3689 89.1445 17.5559 79.0724 14.4779C58.9588 8.33221 34.5443 17.8478 19.1727 32.2222C-17.3463 66.3717 2.04503 127.285 45.8786 139.158C67.3226 144.966 90.1974 145.527 112.458 145.239C131.809 144.989 155.206 144.642 174.424 136.389Z" fill="white"/>
</mask>
<g mask="url(#mask5_2591_585)">
<path d="M183.553 143.808C184.602 143.808 184.604 142.176 183.553 142.176C182.503 142.176 182.501 143.808 183.553 143.808Z" fill="#E1F8FF"/>
</g>
<mask id="mask6_2591_585" style="mask-type:luminance" maskUnits="userSpaceOnUse" x="0" y="12" width="211" height="134">
<path d="M174.29 136.371C185.837 131.415 195.875 123.604 202.617 111.243C213.15 91.9321 212.572 66.5019 201.354 47.681C192.968 33.6121 179.262 26.0914 164.016 25.2422C145.155 24.1918 126.738 33.4458 107.94 27.6213C97.8865 24.5061 89.0758 17.7026 79.0115 14.6288C58.9133 8.49159 34.5177 17.994 19.1579 32.3485C-17.3329 66.4508 2.04345 127.279 45.8433 139.136C67.2707 144.936 90.1278 145.497 112.372 145.209C131.707 144.959 155.086 144.612 174.29 136.371Z" fill="white"/>
</mask>
<g mask="url(#mask6_2591_585)">
<path d="M185.501 85.2058C187.876 82.8304 187.876 78.9791 185.501 76.6037C183.127 74.2283 179.277 74.2283 176.902 76.6037C174.528 78.9791 174.528 82.8304 176.902 85.2058C179.277 87.5812 183.127 87.5812 185.501 85.2058Z" fill="#116872"/>
<path opacity="0.32" d="M185.224 76.3424C185.432 76.9561 185.547 77.6129 185.547 78.2968C185.547 81.6563 182.824 84.3795 179.466 84.3795C177.924 84.3795 176.517 83.8043 175.445 82.8579C176.259 85.2583 178.529 86.9862 181.203 86.9862C184.561 86.9862 187.284 84.263 187.284 80.9035C187.284 79.0868 186.487 77.4569 185.224 76.3424Z" fill="#116872"/>
<path d="M172.083 84.7053C175.022 84.7053 177.404 82.3224 177.404 79.3829C177.404 76.4434 175.022 74.0605 172.083 74.0605C169.145 74.0605 166.763 76.4434 166.763 79.3829C166.763 82.3224 169.145 84.7053 172.083 84.7053Z" fill="#116872"/>
<path opacity="0.32" d="M175.601 75.3921C175.783 75.9291 175.883 76.5037 175.883 77.102C175.883 80.0414 173.501 82.4244 170.563 82.4244C169.214 82.4244 167.982 81.921 167.045 81.0932C167.757 83.1932 169.743 84.7053 172.083 84.7053C175.021 84.7053 177.404 82.3226 177.404 79.3829C177.403 77.7931 176.706 76.3672 175.601 75.3921Z" fill="#116872"/>
<path d="M184.763 76.7563C185.721 73.2294 183.639 69.5937 180.113 68.6357C176.588 67.6778 172.953 69.7604 171.996 73.2873C171.038 76.8143 173.12 80.45 176.646 81.4079C180.171 82.3658 183.806 80.2833 184.763 76.7563Z" fill="#116872"/>
<path opacity="0.32" d="M182.763 70.0557C182.99 70.7233 183.114 71.4379 183.114 72.1818C183.114 75.8367 180.153 78.7996 176.499 78.7996C174.821 78.7996 173.291 78.1738 172.125 77.1442C173.011 79.7554 175.48 81.6354 178.389 81.6354C182.043 81.6354 185.005 78.6726 185.005 75.0177C185.005 73.0414 184.137 71.2684 182.763 70.0557Z" fill="#116872"/>
<path d="M175.123 84.8404V89.2674C175.123 90.8402 174.4 93.1358 173.952 94.4099C175.01 94.8251 176.739 95.1728 178.757 94.3054C178.533 92.8652 178.163 90.3274 178.163 89.2674C178.163 88.5012 178.356 87.1559 178.548 86.0094C178.724 84.9518 179.309 84.0162 180.159 83.3923C180.637 83.0414 181.086 82.6526 181.48 82.209L181.963 81.6638C181.963 81.6638 178.586 84.1559 177.403 83.9447C176.205 83.7309 173.603 80.9035 173.603 80.9035L174.723 83.1442C174.987 83.6708 175.123 84.2515 175.123 84.8404Z" fill="#331B11"/>
<path opacity="0.23" d="M178.757 94.3054C178.533 92.8652 178.163 90.3274 178.163 89.2674C178.163 88.5012 178.356 87.1559 178.548 86.0094C178.724 84.9518 179.309 84.0162 180.159 83.3923C180.637 83.0414 181.086 82.6526 181.479 82.209L181.963 81.6638C181.963 81.6638 180.481 82.7577 179.136 83.4344C179.073 83.4766 179.009 83.518 178.945 83.5592C178.056 84.1255 177.411 85.0207 177.165 86.0643C176.933 87.0476 176.879 92.9278 176.903 94.8042C177.483 94.7393 178.105 94.5855 178.757 94.3054Z" fill="#331B11"/>
</g>
<mask id="mask7_2591_585" style="mask-type:luminance" maskUnits="userSpaceOnUse" x="0" y="12" width="211" height="134">
<path d="M174.424 136.389C185.981 131.426 196.026 123.605 202.774 111.226C213.314 91.8884 212.736 66.423 201.509 47.576C193.117 33.4875 179.4 25.9564 164.143 25.106C145.267 24.0542 126.836 33.321 108.023 27.4884C97.962 24.3689 89.1445 17.5559 79.0724 14.4779C58.9588 8.33221 34.5443 17.8478 19.1727 32.2222C-17.3463 66.3717 2.04503 127.285 45.8786 139.158C67.3226 144.966 90.1974 145.527 112.458 145.239C131.809 144.989 155.206 144.642 174.424 136.389Z" fill="white"/>
</mask>
<g mask="url(#mask7_2591_585)">
<path d="M151.933 77.5952H151.971" stroke="#A6A6A6" stroke-width="8.47746" stroke-linecap="round" stroke-linejoin="round"/>
<path d="M149.033 83.4489C148.511 83.4489 148.089 83.8754 148.089 84.4016C148.089 84.9278 148.511 85.3544 149.033 85.3544C149.554 85.3544 149.977 84.9278 149.977 84.4016C149.977 83.8754 149.554 83.4489 149.033 83.4489Z" fill="#999999"/>
<path d="M149.078 83.3791C149.644 83.3791 150.104 83.8392 150.104 84.4058C150.104 84.9725 149.644 85.4326 149.078 85.4326C148.512 85.4326 148.053 84.9725 148.053 84.4058C148.053 83.8392 148.512 83.3791 149.078 83.3791Z" stroke="#090909" stroke-width="5.21364" stroke-linecap="round" stroke-linejoin="round"/>
<path d="M161.974 83.418C161.408 83.418 160.949 83.8781 160.949 84.4448C160.949 85.0115 161.408 85.4716 161.974 85.4716C162.54 85.4716 163 85.0115 163 84.4448C163 83.8781 162.54 83.418 161.974 83.418Z" stroke="#090909" stroke-width="5.21364" stroke-linecap="round" stroke-linejoin="round"/>
<path d="M161.962 83.6961C161.54 83.6961 161.198 84.0414 161.198 84.4673C161.198 84.8932 161.54 85.2385 161.962 85.2385C162.384 85.2385 162.726 84.8932 162.726 84.4673C162.726 84.0414 162.384 83.6961 161.962 83.6961Z" fill="#999999"/>
<path d="M168.383 77.8423C168.069 77.5745 159.872 77.7139 159.872 77.7139L158.256 77.7409L153.522 77.7802H151.256C151.256 77.7802 149.943 77.7837 148.643 77.7802C147.342 77.7766 147.421 77.7906 146.813 77.7802C146.204 77.7698 145.981 77.8328 145.651 77.9491C145.321 78.0653 145.641 77.9491 145.641 77.9491L144.677 78.189L144.329 78.279L144.111 78.3238L144.01 78.3485L143.84 78.413L143.716 78.4972L143.626 78.587L143.504 78.8102L143.407 79.0972L143.326 79.3987L143.259 79.7967V79.9511L143.326 80.0268H143.486L143.587 79.9511L143.635 79.8752L143.673 79.7735L143.71 79.6488L143.749 79.5162L143.79 79.3724L143.866 79.1391L143.993 78.847L144.133 78.7825L144.272 78.7134L144.482 78.655L144.794 78.587L145.13 78.5461C145.13 78.5461 144.026 82.091 144.009 82.5188C143.978 83.2507 144.056 84.6427 144.29 84.8763C144.523 85.11 147.547 84.9834 147.547 84.9834C147.547 84.9834 147.323 82.8516 149.074 82.8419C150.824 82.8322 150.6 84.9834 150.6 84.9834H160.486C160.486 84.9834 160.302 82.8806 162.013 82.8856C163.724 82.8906 163.587 84.9542 163.587 84.9542C163.587 84.9542 168.063 84.7985 168.268 84.5259C168.397 84.3537 168.418 81.8508 168.337 79.9643C168.319 79.5291 168.294 79.1267 168.265 78.7932C168.248 78.6062 168.24 78.3873 168.235 78.2394C168.231 78.0915 168.216 77.9826 168.235 77.9129C168.264 77.8075 168.41 77.8649 168.383 77.8423Z" stroke="black" stroke-width="1.41291" stroke-linecap="round" stroke-linejoin="round"/>
<path d="M168.383 77.8423C168.069 77.5745 159.872 77.7139 159.872 77.7139L158.256 77.7409L153.522 77.7802H151.256C151.256 77.7802 149.943 77.7837 148.643 77.7802C147.342 77.7766 147.421 77.7906 146.813 77.7802C146.204 77.7698 145.981 77.8328 145.651 77.9491C145.321 78.0653 145.641 77.9491 145.641 77.9491L144.677 78.189L144.329 78.279L144.111 78.3238L144.01 78.3485L143.84 78.413L143.716 78.4972L143.626 78.587L143.504 78.8102L143.407 79.0972L143.326 79.3987L143.259 79.7967V79.9511L143.326 80.0268H143.486L143.587 79.9511L143.635 79.8752L143.673 79.7735L143.71 79.6488L143.749 79.5162L143.79 79.3724L143.866 79.1391L143.993 78.847L144.133 78.7825L144.272 78.7134L144.482 78.655L144.794 78.587L145.13 78.5461C145.13 78.5461 144.026 82.091 144.009 82.5188C143.978 83.2507 144.056 84.6427 144.29 84.8763C144.523 85.11 147.547 84.9834 147.547 84.9834C147.547 84.9834 147.323 82.8516 149.074 82.8419C150.824 82.8322 150.6 84.9834 150.6 84.9834H160.486C160.486 84.9834 160.302 82.8806 162.013 82.8856C163.724 82.8906 163.587 84.9542 163.587 84.9542C163.587 84.9542 168.063 84.7985 168.268 84.5259C168.397 84.3537 168.418 81.8508 168.337 79.9643C168.319 79.5291 168.294 79.1267 168.265 78.7932C168.248 78.6062 168.24 78.3873 168.235 78.2394C168.231 78.0915 168.216 77.9826 168.235 77.9129C168.264 77.8075 168.41 77.8649 168.383 77.8423Z" fill="#BCBCBC"/>
<path d="M150.186 78.189L167.334 78.1987C167.533 78.1987 167.685 78.3132 167.685 78.5318L167.776 80.1897C167.776 80.4083 167.65 80.5802 167.451 80.5802L150.186 80.5871L150.186 80.0906V78.7044L150.186 78.189Z" fill="#0D0D0D" fill-opacity="0.999984"/>
<path d="M150.003 78.1962L149.095 78.2386L148.239 78.2577L147.698 78.2801L147.262 78.3017L146.842 78.348C146.842 78.348 146.48 78.4118 146.307 78.6017C146.181 78.739 146.061 78.9395 145.925 79.244C145.549 80.0861 145.085 81.4719 145.085 81.4719L150.003 80.6674V78.1962Z" fill="#0D0D0D"/>
<path d="M145.496 78.6872L145.409 78.9655L145.2 79.6343L144.409 82.1682L144.309 82.2934L144.172 82.4157L144.055 82.4065L144.066 82.2744L144.874 79.4606L145.135 78.5837L145.282 78.5952L145.435 78.6402L145.496 78.6872Z" stroke="black" stroke-width="0.706455" stroke-linecap="round" stroke-linejoin="round"/>
<path d="M145.496 78.6872L145.409 78.9655L145.2 79.6343L144.409 82.1682L144.309 82.2934L144.172 82.4157L144.055 82.4065L144.066 82.2744L144.874 79.4606L145.135 78.5837L145.282 78.5952L145.435 78.6402L145.496 78.6872Z" fill="#0D0D0D"/>
<path d="M147.13 79.1392H146.75H146.311H146.008L145.822 79.5013L145.688 79.7954L145.548 80.1397L145.392 80.5925L145.285 80.9623L145.136 81.472V81.9043V82.7904V85.0177L147.13 85.0177V81.1161V79.1392Z" stroke="black" stroke-width="0.706455" stroke-linecap="round" stroke-linejoin="round"/>
<path d="M147.13 79.1392H146.75H146.311H146.008L145.822 79.5013L145.688 79.7954L145.548 80.1397L145.392 80.5925L145.285 80.9623L145.136 81.472V81.9043V82.7904V85.0177L147.13 85.0177V81.1161V79.1392Z" fill="#BCBCBC"/>
<path d="M147.141 79.1328L146.617 79.1328H146.096L145.958 79.1392L145.824 79.4447L145.662 79.7877L145.549 80.1109L145.426 80.4773L145.349 80.7276L145.235 81.1191L145.13 81.472L147.146 81.1191L147.141 79.1328Z" fill="#0D0D0D"/>
<path d="M144.722 82.7667C144.653 82.7439 144.624 82.7425 144.561 82.7604C144.499 82.7782 144.469 82.8002 144.429 82.8378C144.409 82.8574 144.36 82.9077 144.345 82.9319C144.326 82.9621 144.22 83.099 144.194 83.1439C144.167 83.1887 144.042 83.3909 144.085 83.4603C144.12 83.5174 144.095 83.4946 144.159 83.5265C144.188 83.541 144.244 83.5123 144.29 83.5033C144.336 83.4943 144.539 83.4367 144.592 83.4244C144.644 83.4124 144.757 83.3737 144.798 83.3424C144.857 83.2963 144.872 83.2225 144.888 83.1455C144.903 83.0721 144.888 82.9873 144.869 82.93C144.851 82.8727 144.853 82.8754 144.831 82.8453C144.81 82.8152 144.792 82.7894 144.722 82.7667Z" stroke="black" stroke-width="0.706455" stroke-linecap="round" stroke-linejoin="round"/>
<path d="M144.722 82.7667C144.653 82.7439 144.624 82.7425 144.561 82.7604C144.499 82.7782 144.469 82.8002 144.429 82.8378C144.409 82.8574 144.36 82.9077 144.345 82.9319C144.326 82.9621 144.22 83.099 144.194 83.1439C144.167 83.1887 144.042 83.3909 144.085 83.4603C144.12 83.5174 144.095 83.4946 144.159 83.5265C144.188 83.541 144.244 83.5123 144.29 83.5033C144.336 83.4943 144.539 83.4367 144.592 83.4244C144.644 83.4124 144.757 83.3737 144.798 83.3424C144.857 83.2963 144.872 83.2225 144.888 83.1455C144.903 83.0721 144.888 82.9873 144.869 82.93C144.851 82.8727 144.853 82.8754 144.831 82.8453C144.81 82.8152 144.792 82.7894 144.722 82.7667Z" fill="white"/>
<path d="M168.197 80.7137C168.197 80.7137 168.126 80.994 168.133 80.9646C168.14 80.9352 168.034 81.732 168.036 81.8014L168.039 81.9185C168.04 81.988 168.036 82.266 168.048 82.3196C168.06 82.3732 168.314 82.8663 168.314 82.8663C168.366 82.8651 168.351 82.7535 168.35 82.6841L168.307 80.8034C168.306 80.767 168.301 80.7181 168.274 80.7119C168.247 80.7057 168.222 80.7131 168.197 80.7137Z" stroke="black" stroke-width="0.706455" stroke-linecap="round" stroke-linejoin="round"/>
<path d="M168.197 80.7137C168.197 80.7137 168.126 80.994 168.133 80.9646C168.14 80.9352 168.034 81.732 168.036 81.8014L168.039 81.9185C168.04 81.988 168.036 82.266 168.048 82.3196C168.06 82.3732 168.314 82.8663 168.314 82.8663C168.366 82.8651 168.351 82.7535 168.35 82.6841L168.307 80.8034C168.306 80.767 168.301 80.7181 168.274 80.7119C168.247 80.7057 168.222 80.7131 168.197 80.7137Z" fill="#E80000"/>
<path d="M158.837 76.7745L157.954 76.7383L156.934 76.7277L151.846 76.7301L150.076 76.7117L149.296 76.7036L148.684 76.6973C148.684 76.6973 148.4 76.7106 148.182 76.7265C147.964 76.7425 147.747 76.7463 147.583 76.7768C147.42 76.8073 147.106 76.9148 147.026 76.9461C146.945 76.9773 146.521 77.138 146.392 77.2354C146.262 77.3329 146.042 77.4977 146.042 77.4977L145.642 77.8612L161.551 77.6157L160.781 77.2672L160.056 77.0188L159.433 76.8641L158.837 76.7745Z" stroke="black" stroke-width="1.41291" stroke-linecap="round" stroke-linejoin="round"/>
<path d="M158.837 76.7745L157.954 76.7383L156.934 76.7277L151.846 76.7301L150.076 76.7117L149.296 76.7036L148.684 76.6973C148.684 76.6973 148.4 76.7106 148.182 76.7265C147.964 76.7425 147.747 76.7463 147.583 76.7768C147.42 76.8073 147.106 76.9148 147.026 76.9461C146.945 76.9773 146.521 77.138 146.392 77.2354C146.262 77.3329 146.042 77.4977 146.042 77.4977L145.642 77.8612L161.551 77.6157L160.781 77.2672L160.056 77.0188L159.433 76.8641L158.837 76.7745Z" fill="#BCBCBC"/>
<path d="M154.977 82.5907H151.291V84.9633H154.977V82.5907Z" stroke="#0D0D0D" stroke-width="0.353228" stroke-linecap="round" stroke-linejoin="round"/>
<path d="M154.977 82.5907H151.291V84.9633H154.977V82.5907Z" fill="#BCBCBC"/>
<path d="M152.945 82.8831C152.945 82.8595 152.964 82.8403 152.988 82.8403H153.28C153.303 82.8403 153.322 82.8595 153.322 82.8831C153.322 82.9068 153.303 82.9259 153.28 82.9259H152.988C152.964 82.9259 152.945 82.9068 152.945 82.8831Z" stroke="black" stroke-width="0.353228" stroke-linecap="round" stroke-linejoin="round"/>
<path d="M152.945 82.8831C152.945 82.8595 152.964 82.8403 152.988 82.8403H153.28C153.303 82.8403 153.322 82.8595 153.322 82.8831C153.322 82.9068 153.303 82.9259 153.28 82.9259H152.988C152.964 82.9259 152.945 82.9068 152.945 82.8831Z" fill="#BCBCBC"/>
<path d="M159.288 80.5721H157.242V84.9557H159.288V80.5721Z" stroke="black" stroke-width="0.706455" stroke-linecap="round" stroke-linejoin="round"/>
<path d="M159.288 80.5721H157.242V84.9557H159.288V80.5721Z" fill="#BCBCBC"/>
<path d="M149.999 78.2685L150.019 77.8448L150.36 77.8614L150.345 78.1815L150.227 80.5788L149.566 80.6283C149.566 80.6283 149.617 80.6075 149.668 80.5433C149.72 80.4791 149.714 80.4889 149.746 80.4259C149.777 80.363 149.789 80.306 149.815 80.1847C149.841 80.0634 149.882 79.6597 149.882 79.6597L149.927 79.2211L149.984 78.5775L149.999 78.2685Z" stroke="#ABABAB" stroke-width="0.282582" stroke-linecap="round" stroke-linejoin="round"/>
<path d="M149.999 78.2685L150.019 77.8448L150.36 77.8614L150.345 78.1815L150.227 80.5788L149.566 80.6283C149.566 80.6283 149.617 80.6075 149.668 80.5433C149.72 80.4791 149.714 80.4889 149.746 80.4259C149.777 80.363 149.789 80.306 149.815 80.1847C149.841 80.0634 149.882 79.6597 149.882 79.6597L149.927 79.2211L149.984 78.5775L149.999 78.2685Z" fill="#E4E4E4"/>
<path d="M149.641 80.5079L149.367 80.567L148.788 80.6908L148.386 80.7804L147.732 80.9168L147.122 81.0441L145.101 81.4685L145.084 81.4944L145.083 81.5223L145.11 81.5296L145.375 81.5007L146.166 81.4231L146.727 81.3612L147.196 81.3044L147.704 81.2467L148.283 81.1768L148.771 81.109L149.885 80.9667L150.007 80.946C150.007 80.946 150.081 80.9309 150.129 80.9086C150.178 80.8862 150.19 80.8484 150.194 80.839C150.198 80.8296 150.204 80.8172 150.214 80.7396C150.225 80.6619 150.225 80.605 150.225 80.605L150.235 80.4615L150.244 80.3569L150.118 80.3954L149.853 80.4603L149.641 80.5079Z" stroke="#ABABAB" stroke-width="0.282582" stroke-linecap="round" stroke-linejoin="round"/>
<path d="M149.641 80.5079L149.367 80.567L148.788 80.6908L148.386 80.7804L147.732 80.9168L147.122 81.0441L145.101 81.4685L145.084 81.4944L145.083 81.5223L145.11 81.5296L145.375 81.5007L146.166 81.4231L146.727 81.3612L147.196 81.3044L147.704 81.2467L148.283 81.1768L148.771 81.109L149.885 80.9667L150.007 80.946C150.007 80.946 150.081 80.9309 150.129 80.9086C150.178 80.8862 150.19 80.8484 150.194 80.839C150.198 80.8296 150.204 80.8172 150.214 80.7396C150.225 80.6619 150.225 80.605 150.225 80.605L150.235 80.4615L150.244 80.3569L150.118 80.3954L149.853 80.4603L149.641 80.5079Z" fill="#E4E4E4"/>
</g>
<mask id="mask8_2591_585" style="mask-type:luminance" maskUnits="userSpaceOnUse" x="0" y="12" width="211" height="134">
<path d="M174.424 136.389C185.981 131.426 196.026 123.605 202.774 111.226C213.314 91.8884 212.736 66.423 201.509 47.576C193.117 33.4875 179.4 25.9564 164.143 25.106C145.267 24.0542 126.836 33.321 108.023 27.4884C97.962 24.3689 89.1445 17.5559 79.0724 14.4779C58.9588 8.33221 34.5443 17.8478 19.1727 32.2222C-17.3463 66.3717 2.04503 127.285 45.8786 139.158C67.3226 144.966 90.1974 145.527 112.458 145.239C131.809 144.989 155.206 144.642 174.424 136.389Z" fill="white"/>
</mask>
<g mask="url(#mask8_2591_585)">
<path opacity="0.25" d="M27.301 97.4011C27.3154 97.389 27.3278 97.3773 27.3415 97.3652C27.3708 97.3394 27.4002 97.314 27.427 97.2878C27.4416 97.2738 27.4544 97.2594 27.4681 97.2454C27.4912 97.2216 27.5144 97.1974 27.5356 97.1736C27.5484 97.1589 27.5598 97.1442 27.5719 97.1295C27.5911 97.1057 27.61 97.0819 27.627 97.058C27.6374 97.0433 27.6469 97.0286 27.6564 97.014C27.6724 96.9898 27.6877 96.9656 27.7011 96.9412C27.7089 96.9271 27.7161 96.9128 27.7233 96.8987C27.736 96.8736 27.7477 96.8488 27.7579 96.8236C27.7634 96.8103 27.7686 96.7969 27.7732 96.7838C27.7827 96.7574 27.7908 96.7312 27.7977 96.7048C27.8009 96.6927 27.8039 96.681 27.8065 96.6689C27.8127 96.6405 27.8173 96.6124 27.8205 96.5844C27.8215 96.5746 27.8231 96.5644 27.8238 96.5546C27.8264 96.5233 27.8264 96.4923 27.8254 96.461C27.8251 96.4541 27.8254 96.4472 27.8251 96.4404C27.8228 96.4041 27.8182 96.3676 27.8111 96.3317C27.8107 96.3301 27.8107 96.3287 27.8104 96.3271C27.7628 96.0921 27.6126 95.8629 27.3685 95.6478C27.317 95.6024 27.2615 95.5577 27.2018 95.5139C27.4162 95.4049 27.6107 95.2887 27.7801 95.1653C27.8355 95.1248 27.8874 95.0843 27.936 95.0435C27.9517 95.0305 27.9651 95.0174 27.9801 95.0044C28.0121 94.9763 28.0441 94.9485 28.0731 94.9205C28.0891 94.9051 28.1031 94.8894 28.1181 94.8738C28.1433 94.848 28.1684 94.8219 28.1912 94.7957C28.2053 94.7798 28.2177 94.7634 28.2307 94.7474C28.2516 94.7217 28.2722 94.6959 28.2908 94.6701C28.3022 94.6541 28.3123 94.6381 28.3227 94.6221C28.34 94.5956 28.3567 94.5695 28.3714 94.5431C28.3798 94.5277 28.388 94.5124 28.3955 94.497C28.4092 94.47 28.4219 94.4425 28.4334 94.4154C28.4392 94.4011 28.4448 94.3864 28.45 94.372C28.4604 94.3433 28.4693 94.3149 28.4768 94.2862C28.48 94.2731 28.4836 94.2604 28.4866 94.2473C28.4934 94.2166 28.498 94.1859 28.5016 94.1553C28.5029 94.1445 28.5045 94.1337 28.5052 94.1229C28.5078 94.089 28.5081 94.055 28.5068 94.0211C28.5065 94.0136 28.5068 94.0064 28.5061 93.9989C28.5039 93.9594 28.4986 93.9199 28.4908 93.8804C28.4905 93.8788 28.4905 93.8771 28.4901 93.8755C28.3211 93.0398 26.9662 92.271 24.7266 91.8936C21.6418 91.3743 17.9461 91.7778 16.0305 92.7901C13.354 92.3918 10.1837 92.8292 8.85549 93.7968C8.57746 93.9992 8.4032 94.2094 8.32259 94.4197C8.22437 94.6756 8.26646 94.9312 8.43713 95.1731C8.43876 95.1751 8.44007 95.1774 8.4417 95.1793C8.50893 95.2733 8.59541 95.3654 8.70081 95.4545C8.7044 95.4575 8.70766 95.4607 8.71158 95.4637C8.76379 95.5074 8.82024 95.5502 8.88127 95.5923C8.88551 95.5952 8.89041 95.5982 8.89465 95.6011C8.95502 95.6422 9.01931 95.6824 9.08784 95.7219C9.09045 95.7235 9.09273 95.7248 9.09534 95.7265C9.16387 95.7656 9.23697 95.8035 9.31333 95.8407C9.32541 95.8466 9.33748 95.8525 9.34988 95.858C9.50358 95.9311 9.67262 96.0003 9.85667 96.0653C9.87364 96.0712 9.88996 96.077 9.90693 96.0829C9.99732 96.1139 10.091 96.144 10.1879 96.173C10.2036 96.1776 10.2199 96.1822 10.2355 96.1867C10.3256 96.2129 10.4183 96.238 10.5139 96.2621C10.5299 96.2661 10.5456 96.2703 10.5619 96.2746C10.666 96.3003 10.774 96.3245 10.8846 96.3477C10.9088 96.3529 10.9336 96.3578 10.958 96.3627C11.0726 96.3859 11.1894 96.4081 11.3105 96.4286C12.3035 96.5958 13.3752 96.6438 14.4025 96.5893C14.3339 96.713 14.2213 96.8338 14.0637 96.9487L12.0069 98.4471C11.2762 98.9795 9.54013 99.6435 8.53242 100.005C9.065 100.212 9.89779 100.455 11.0837 100.598L11.083 100.599C11.0954 100.6 11.1082 100.601 11.1206 100.603C11.1385 100.605 11.1571 100.607 11.1754 100.609C11.2641 100.619 11.3549 100.629 11.4475 100.638C11.4632 100.639 11.4789 100.641 11.4945 100.642C11.598 100.652 11.7037 100.661 11.812 100.669C11.8346 100.67 11.8577 100.672 11.8802 100.674C11.9821 100.681 12.0855 100.687 12.1916 100.693C12.203 100.694 12.2144 100.694 12.2262 100.695C12.34 100.701 12.4569 100.705 12.5757 100.709C12.6034 100.71 12.6315 100.711 12.6595 100.712C12.7812 100.715 12.9043 100.718 13.0312 100.719C13.493 100.196 14.33 99.2798 14.8224 98.921C15.1439 98.687 15.8305 98.3175 16.4835 97.9845C16.6522 98.0635 16.8366 98.1382 17.0363 98.2088C17.0555 98.2156 17.0745 98.2225 17.094 98.229C17.1972 98.2646 17.3042 98.2988 17.4151 98.3318C17.4331 98.337 17.4517 98.3423 17.4696 98.3475C17.5724 98.3772 17.6785 98.4059 17.7875 98.4337C17.8061 98.4382 17.8237 98.4431 17.8423 98.4477C17.9614 98.4771 18.0848 98.5048 18.2114 98.5313C18.2391 98.5371 18.2672 98.5427 18.2949 98.5482C18.4261 98.5747 18.5596 98.6002 18.6979 98.6237C21.8085 99.1476 25.5953 98.6504 27.1561 97.5134C27.2086 97.4762 27.256 97.4387 27.301 97.4011Z" fill="#AD8960"/>
</g>
<mask id="mask9_2591_585" style="mask-type:luminance" maskUnits="userSpaceOnUse" x="0" y="12" width="211" height="134">
<path d="M174.424 136.389C185.981 131.426 196.026 123.605 202.774 111.226C213.314 91.8884 212.736 66.423 201.509 47.576C193.117 33.4875 179.4 25.9564 164.143 25.106C145.267 24.0542 126.836 33.321 108.023 27.4884C97.962 24.3689 89.1445 17.5559 79.0724 14.4779C58.9588 8.33221 34.5443 17.8478 19.1727 32.2222C-17.3463 66.3717 2.04503 127.285 45.8786 139.158C67.3226 144.966 90.1974 145.527 112.458 145.239C131.809 144.989 155.206 144.642 174.424 136.389Z" fill="white"/>
</mask>
<g mask="url(#mask9_2591_585)">
<path opacity="0.25" d="M62.4401 81.5394C62.4584 81.5244 62.474 81.5091 62.4913 81.494C62.5285 81.4614 62.5657 81.4287 62.5993 81.3961C62.6176 81.3781 62.6339 81.3602 62.6516 81.3422C62.6809 81.3119 62.7103 81.2815 62.7371 81.2512C62.7534 81.2326 62.7677 81.214 62.7827 81.1953C62.8072 81.1653 62.831 81.1353 62.8526 81.1049C62.8656 81.0863 62.8777 81.0677 62.8898 81.0494C62.91 81.0187 62.9293 80.988 62.9466 80.9574C62.9567 80.9394 62.9658 80.9215 62.975 80.9038C62.9909 80.8722 63.0059 80.8405 63.019 80.8088C63.0259 80.7919 63.0324 80.7752 63.0386 80.7582C63.0507 80.7249 63.0611 80.6916 63.0699 80.6583C63.0738 80.6433 63.0777 80.628 63.0813 80.613C63.0892 80.577 63.0947 80.5415 63.099 80.5056C63.1003 80.4932 63.1022 80.4804 63.1032 80.468C63.1065 80.4285 63.1068 80.389 63.1052 80.3495C63.1048 80.341 63.1052 80.3322 63.1045 80.3237C63.1016 80.2777 63.0957 80.2317 63.0866 80.186C63.0862 80.184 63.0859 80.1821 63.0856 80.1801C63.0252 79.8824 62.835 79.5918 62.5259 79.3196C62.4607 79.2621 62.3902 79.2057 62.3145 79.1498C62.586 79.0117 62.832 78.8645 63.0467 78.7085C63.1169 78.6572 63.1825 78.606 63.2445 78.5541C63.2641 78.5377 63.2814 78.5211 63.3003 78.5044C63.3408 78.4692 63.3812 78.4336 63.4178 78.398C63.438 78.3784 63.4556 78.3589 63.4749 78.3389C63.5069 78.306 63.5385 78.2733 63.5672 78.24C63.5849 78.2198 63.6009 78.1992 63.6172 78.179C63.6436 78.1463 63.6697 78.1137 63.6932 78.081C63.7076 78.0608 63.7206 78.0406 63.734 78.0203C63.7559 77.987 63.7767 77.9537 63.7957 77.9204C63.8068 77.9008 63.8166 77.8816 63.8267 77.862C63.8443 77.8274 63.8603 77.7931 63.8746 77.7585C63.8822 77.7402 63.8893 77.722 63.8959 77.7037C63.9089 77.6674 63.9203 77.6312 63.9298 77.595C63.934 77.5786 63.9386 77.562 63.9422 77.5457C63.9507 77.5068 63.9569 77.4676 63.9614 77.4288C63.9631 77.4151 63.965 77.4014 63.966 77.388C63.9693 77.3449 63.9699 77.3018 63.9683 77.2591C63.968 77.2496 63.9683 77.2404 63.9676 77.231C63.9647 77.1807 63.9582 77.1308 63.9484 77.0808C63.9481 77.0789 63.9477 77.0766 63.9474 77.0746C63.7333 76.0163 62.0172 75.0422 59.1807 74.5646C55.2736 73.9064 50.593 74.4177 48.1667 75.7003C44.7765 75.1959 40.7613 75.7499 39.0791 76.9754C38.727 77.232 38.5064 77.498 38.4039 77.7641C38.2792 78.0879 38.3331 78.4117 38.5491 78.7183C38.5511 78.7209 38.553 78.7235 38.5547 78.7261C38.6398 78.8453 38.7495 78.9618 38.8829 79.0744C38.8875 79.0783 38.8918 79.0823 38.8963 79.0858C38.9626 79.141 39.034 79.1952 39.1114 79.2484C39.1169 79.2523 39.1228 79.2559 39.1283 79.2598C39.2047 79.3117 39.2863 79.363 39.3731 79.4129C39.3764 79.4149 39.3796 79.4169 39.3829 79.4188C39.4697 79.4681 39.562 79.5164 39.659 79.5634C39.6743 79.5709 39.6896 79.5781 39.7053 79.5856C39.9001 79.6783 40.1142 79.7658 40.3472 79.8481C40.3684 79.8556 40.3893 79.8631 40.4108 79.8706C40.5254 79.9098 40.6438 79.948 40.7669 79.9846C40.7868 79.9904 40.8073 79.996 40.8272 80.0019C40.9411 80.0348 41.0586 80.0668 41.1797 80.0972C41.1999 80.1024 41.2198 80.1076 41.2404 80.1128C41.3725 80.1455 41.5089 80.1762 41.6493 80.2056C41.6799 80.2121 41.7113 80.2183 41.7423 80.2245C41.8875 80.2539 42.0353 80.2819 42.1887 80.3081C43.4464 80.5199 44.8039 80.5803 46.105 80.5114C46.0178 80.6681 45.8752 80.8212 45.6762 80.9665L43.0711 82.8641C42.1456 83.5382 39.9468 84.3795 38.6708 84.8372C39.3454 85.099 40.4001 85.4078 41.9022 85.589L41.9015 85.5896C41.9172 85.5916 41.9335 85.5932 41.9491 85.5952C41.972 85.5978 41.9955 85.6004 42.0187 85.603C42.1312 85.6157 42.2461 85.6278 42.3636 85.6393C42.3835 85.6412 42.4031 85.6432 42.4233 85.6451C42.5542 85.6575 42.6883 85.6686 42.8253 85.6788C42.8541 85.681 42.8831 85.683 42.9118 85.685C43.0407 85.6941 43.1719 85.7023 43.3064 85.7094C43.321 85.7101 43.3351 85.7111 43.3501 85.7121C43.4943 85.7192 43.6422 85.7251 43.7926 85.73C43.8278 85.731 43.8634 85.7323 43.899 85.7333C44.053 85.7375 44.209 85.7411 44.3695 85.7424C44.9547 85.0807 46.0146 83.9199 46.6382 83.4654C47.0455 83.1687 47.9148 82.7009 48.742 82.2791C48.9555 82.379 49.1894 82.474 49.4424 82.5631C49.4668 82.5716 49.4906 82.5805 49.5154 82.5889C49.6463 82.634 49.7814 82.6774 49.9224 82.7192C49.9449 82.726 49.9684 82.7322 49.9916 82.7391C50.1218 82.777 50.2559 82.8132 50.3943 82.8481C50.4178 82.854 50.4403 82.8602 50.4638 82.8661C50.6145 82.9033 50.7708 82.9382 50.9311 82.9719C50.966 82.9794 51.0016 82.9862 51.0368 82.9934C51.2029 83.027 51.3719 83.0593 51.5472 83.0887C55.4866 83.7524 60.283 83.1227 62.2596 81.6827C62.3229 81.6341 62.3833 81.5868 62.4401 81.5394Z" fill="#AD8960"/>
</g>
<mask id="mask10_2591_585" style="mask-type:luminance" maskUnits="userSpaceOnUse" x="0" y="12" width="211" height="134">
<path d="M174.424 136.389C185.981 131.426 196.026 123.605 202.774 111.226C213.314 91.8884 212.736 66.423 201.509 47.576C193.117 33.4875 179.4 25.9564 164.143 25.106C145.267 24.0542 126.836 33.321 108.023 27.4884C97.962 24.3689 89.1445 17.5559 79.0724 14.4779C58.9588 8.33221 34.5443 17.8478 19.1727 32.2222C-17.3463 66.3717 2.04503 127.285 45.8786 139.158C67.3226 144.966 90.1974 145.527 112.458 145.239C131.809 144.989 155.206 144.642 174.424 136.389Z" fill="white"/>
</mask>
<g mask="url(#mask10_2591_585)">
<path opacity="0.35" d="M122.898 122.382C122.919 122.364 122.937 122.347 122.956 122.33C122.999 122.293 123.041 122.256 123.08 122.219C123.1 122.198 123.119 122.178 123.139 122.158C123.172 122.123 123.205 122.089 123.235 122.054C123.254 122.032 123.27 122.011 123.287 121.99C123.315 121.956 123.342 121.921 123.367 121.887C123.382 121.866 123.395 121.845 123.409 121.824C123.432 121.789 123.454 121.754 123.474 121.719C123.485 121.699 123.496 121.678 123.506 121.658C123.525 121.622 123.542 121.586 123.556 121.55C123.564 121.531 123.572 121.511 123.578 121.493C123.592 121.455 123.604 121.417 123.614 121.379C123.619 121.362 123.623 121.344 123.627 121.327C123.636 121.287 123.642 121.246 123.647 121.205C123.648 121.191 123.65 121.177 123.652 121.162C123.655 121.117 123.655 121.072 123.654 121.028C123.654 121.018 123.654 121.008 123.653 120.998C123.65 120.946 123.643 120.894 123.633 120.842C123.633 120.839 123.632 120.837 123.632 120.835C123.563 120.496 123.347 120.166 122.995 119.856C122.921 119.791 122.841 119.727 122.755 119.663C123.064 119.506 123.344 119.339 123.588 119.161C123.668 119.103 123.742 119.045 123.812 118.986C123.835 118.967 123.854 118.949 123.876 118.93C123.922 118.89 123.968 118.849 124.01 118.809C124.032 118.787 124.053 118.764 124.074 118.742C124.111 118.704 124.147 118.667 124.18 118.63C124.2 118.606 124.217 118.583 124.236 118.56C124.266 118.523 124.296 118.486 124.322 118.448C124.339 118.426 124.353 118.402 124.369 118.38C124.394 118.342 124.417 118.304 124.439 118.266C124.451 118.244 124.463 118.222 124.474 118.199C124.494 118.16 124.512 118.121 124.528 118.081C124.537 118.061 124.545 118.04 124.553 118.019C124.568 117.978 124.58 117.937 124.591 117.895C124.596 117.877 124.601 117.858 124.605 117.839C124.615 117.795 124.622 117.751 124.627 117.706C124.629 117.691 124.631 117.675 124.632 117.66C124.636 117.611 124.636 117.562 124.635 117.513C124.634 117.502 124.635 117.492 124.634 117.481C124.631 117.424 124.623 117.367 124.612 117.31C124.612 117.308 124.611 117.306 124.611 117.303C124.368 116.1 122.415 114.992 119.189 114.448C114.745 113.7 109.422 114.281 106.662 115.74C102.806 115.166 98.2389 115.796 96.3253 117.19C95.9246 117.482 95.6739 117.785 95.5574 118.088C95.4158 118.456 95.4768 118.824 95.7226 119.173C95.7249 119.176 95.7268 119.179 95.7291 119.182C95.826 119.318 95.9507 119.45 96.1024 119.579C96.1076 119.583 96.1125 119.587 96.1178 119.592C96.1931 119.654 96.2744 119.716 96.3625 119.777C96.3687 119.781 96.3756 119.785 96.3818 119.789C96.4689 119.849 96.5612 119.907 96.6601 119.963C96.6637 119.966 96.6673 119.968 96.6712 119.97C96.7698 120.026 96.8752 120.081 96.9851 120.135C97.0024 120.143 97.0201 120.151 97.0377 120.16C97.2593 120.265 97.5027 120.365 97.7677 120.458C97.7918 120.467 97.8156 120.475 97.8401 120.483C97.9703 120.528 98.1051 120.572 98.2451 120.613C98.2676 120.62 98.2911 120.626 98.314 120.633C98.4435 120.67 98.5773 120.706 98.7147 120.741C98.7379 120.747 98.7601 120.753 98.7835 120.759C98.9337 120.796 99.089 120.831 99.2486 120.864C99.2835 120.871 99.3191 120.878 99.3543 120.886C99.5194 120.919 99.6875 120.951 99.8621 120.981C101.293 121.222 102.837 121.29 104.316 121.212C104.218 121.39 104.055 121.564 103.829 121.73L100.866 123.888C99.8128 124.655 97.3121 125.612 95.8606 126.132C96.6278 126.43 97.8277 126.781 99.5361 126.987L99.5351 126.988C99.5527 126.99 99.5713 126.992 99.5893 126.994C99.6154 126.997 99.6421 127 99.6682 127.003C99.7962 127.017 99.9267 127.031 100.06 127.044C100.083 127.046 100.106 127.049 100.128 127.051C100.277 127.065 100.43 127.077 100.586 127.089C100.618 127.091 100.651 127.094 100.684 127.096C100.831 127.106 100.98 127.116 101.133 127.124C101.149 127.125 101.166 127.126 101.182 127.127C101.346 127.135 101.515 127.142 101.686 127.147C101.726 127.149 101.766 127.15 101.807 127.151C101.982 127.156 102.16 127.16 102.343 127.161C103.008 126.409 104.214 125.088 104.923 124.572C105.386 124.234 106.375 123.702 107.316 123.222C107.559 123.336 107.825 123.444 108.112 123.545C108.14 123.555 108.168 123.564 108.196 123.574C108.344 123.625 108.498 123.675 108.658 123.722C108.684 123.73 108.711 123.737 108.737 123.745C108.885 123.788 109.038 123.829 109.195 123.869C109.222 123.876 109.247 123.882 109.274 123.889C109.446 123.931 109.623 123.971 109.806 124.009C109.845 124.018 109.886 124.026 109.926 124.034C110.115 124.072 110.307 124.109 110.507 124.142C114.987 124.897 120.443 124.181 122.691 122.543C122.765 122.49 122.833 122.436 122.898 122.382Z" fill="#AD8960"/>
</g>
<mask id="mask11_2591_585" style="mask-type:luminance" maskUnits="userSpaceOnUse" x="0" y="12" width="211" height="134">
<path d="M174.424 136.389C185.981 131.426 196.026 123.605 202.774 111.226C213.314 91.8884 212.736 66.423 201.509 47.5759C193.117 33.4875 179.4 25.9563 164.143 25.106C145.267 24.0541 126.836 33.321 108.023 27.4884C97.962 24.3688 89.1445 17.5559 79.0724 14.4778C58.9588 8.33216 34.5443 17.8477 19.1727 32.2222C-17.3463 66.3717 2.04503 127.285 45.8786 139.157C67.3226 144.966 90.1974 145.527 112.458 145.239C131.809 144.988 155.206 144.642 174.424 136.389Z" fill="white"/>
</mask>
<g mask="url(#mask11_2591_585)">
<path d="M124.824 105.554H124.762" stroke="#A6A6A6" stroke-width="8.47746" stroke-linecap="round" stroke-linejoin="round"/>
<path d="M129.569 115.133C130.422 115.133 131.114 115.831 131.114 116.692C131.114 117.553 130.422 118.251 129.569 118.251C128.716 118.251 128.024 117.553 128.024 116.692C128.024 115.831 128.716 115.133 129.569 115.133Z" fill="#999999"/>
<path d="M129.495 115.019C128.568 115.019 127.816 115.771 127.816 116.699C127.816 117.626 128.568 118.379 129.495 118.379C130.421 118.379 131.173 117.626 131.173 116.699C131.173 115.771 130.421 115.019 129.495 115.019Z" stroke="#090909" stroke-width="5.21364" stroke-linecap="round" stroke-linejoin="round"/>
<path d="M108.391 115.082C109.318 115.082 110.07 115.835 110.07 116.762C110.07 117.69 109.318 118.443 108.391 118.443C107.465 118.443 106.713 117.69 106.713 116.762C106.713 115.835 107.465 115.082 108.391 115.082Z" stroke="#090909" stroke-width="5.21364" stroke-linecap="round" stroke-linejoin="round"/>
<path d="M108.412 115.537C109.103 115.537 109.662 116.102 109.662 116.799C109.662 117.496 109.103 118.061 108.412 118.061C107.722 118.061 107.162 117.496 107.162 116.799C107.162 116.102 107.722 115.537 108.412 115.537Z" fill="#999999"/>
<path d="M97.9042 105.958C98.4186 105.52 111.832 105.748 111.832 105.748L114.475 105.792L122.221 105.857H125.929C125.929 105.857 128.078 105.863 130.206 105.857C132.335 105.851 132.205 105.874 133.201 105.857C134.197 105.84 134.562 105.943 135.102 106.133C135.641 106.323 135.118 106.133 135.118 106.133L136.696 106.526L137.265 106.673L137.622 106.746L137.787 106.787L138.065 106.892L138.269 107.03L138.416 107.177L138.616 107.542L138.774 108.012L138.907 108.505L139.017 109.157V109.409L138.907 109.533H138.645L138.48 109.409L138.401 109.285L138.338 109.119L138.279 108.914L138.214 108.697L138.147 108.462L138.022 108.08L137.815 107.603L137.586 107.497L137.358 107.384L137.015 107.288L136.505 107.177L135.955 107.11C135.955 107.11 137.761 112.911 137.79 113.611C137.839 114.809 137.712 117.086 137.33 117.469C136.948 117.851 132 117.644 132 117.644C132 117.644 132.366 114.156 129.502 114.14C126.638 114.124 127.004 117.644 127.004 117.644H110.827C110.827 117.644 111.127 114.203 108.328 114.211C105.529 114.219 105.751 117.596 105.751 117.596C105.751 117.596 98.4272 117.341 98.0931 116.895C97.8819 116.613 97.8466 112.518 97.9791 109.431C98.0096 108.719 98.0491 108.06 98.0974 107.514C98.1245 107.208 98.1389 106.85 98.146 106.608C98.153 106.366 98.1774 106.188 98.146 106.074C98.0983 105.901 97.8608 105.995 97.9042 105.958Z" stroke="black" stroke-width="1.41291" stroke-linecap="round" stroke-linejoin="round"/>
<path d="M97.9042 105.958C98.4186 105.52 111.832 105.748 111.832 105.748L114.475 105.792L122.221 105.857H125.929C125.929 105.857 128.078 105.863 130.206 105.857C132.335 105.851 132.205 105.874 133.201 105.857C134.197 105.84 134.562 105.943 135.102 106.133C135.641 106.323 135.118 106.133 135.118 106.133L136.696 106.526L137.265 106.673L137.622 106.746L137.787 106.787L138.065 106.892L138.269 107.03L138.416 107.177L138.616 107.542L138.774 108.012L138.907 108.505L139.017 109.157V109.409L138.907 109.533H138.645L138.48 109.409L138.401 109.285L138.338 109.119L138.279 108.914L138.214 108.697L138.147 108.462L138.022 108.08L137.815 107.603L137.586 107.497L137.358 107.384L137.015 107.288L136.505 107.177L135.955 107.11C135.955 107.11 137.761 112.911 137.79 113.611C137.839 114.809 137.712 117.086 137.33 117.469C136.948 117.851 132 117.644 132 117.644C132 117.644 132.366 114.156 129.502 114.14C126.638 114.124 127.004 117.644 127.004 117.644H110.827C110.827 117.644 111.127 114.203 108.328 114.211C105.529 114.219 105.751 117.596 105.751 117.596C105.751 117.596 98.4272 117.341 98.0931 116.895C97.8819 116.613 97.8466 112.518 97.9791 109.431C98.0096 108.719 98.0491 108.06 98.0974 107.514C98.1245 107.208 98.1389 106.85 98.146 106.608C98.153 106.366 98.1774 106.188 98.146 106.074C98.0983 105.901 97.8608 105.995 97.9042 105.958Z" fill="#BCBCBC"/>
<path d="M127.683 106.526L99.622 106.542C99.2965 106.542 99.0478 106.729 99.0478 107.087L98.899 109.8C98.899 110.157 99.1051 110.439 99.4306 110.439L127.683 110.45L127.683 109.637V107.369L127.683 106.526Z" fill="#0D0D0D" fill-opacity="0.999984"/>
<path d="M127.98 106.538L129.465 106.607L130.867 106.638L131.751 106.675L132.465 106.71L133.152 106.786C133.152 106.786 133.744 106.89 134.028 107.201C134.233 107.426 134.431 107.754 134.653 108.252C135.267 109.63 136.027 111.898 136.027 111.898L127.98 110.581V106.538Z" fill="#0D0D0D"/>
<path d="M135.356 107.341L135.499 107.796L135.841 108.891L137.136 113.037L137.3 113.242L137.523 113.442L137.715 113.427L137.698 113.211L136.374 108.607L135.948 107.172L135.707 107.19L135.457 107.264L135.356 107.341Z" stroke="black" stroke-width="0.706455" stroke-linecap="round" stroke-linejoin="round"/>
<path d="M135.356 107.341L135.499 107.796L135.841 108.891L137.136 113.037L137.3 113.242L137.523 113.442L137.715 113.427L137.698 113.211L136.374 108.607L135.948 107.172L135.707 107.19L135.457 107.264L135.356 107.341Z" fill="#0D0D0D"/>
<path d="M132.683 108.081H133.305H134.022H134.519L134.823 108.673L135.041 109.154L135.271 109.718L135.526 110.459L135.702 111.064L135.945 111.898V112.605V114.055V117.7L132.683 117.7V111.315V108.081Z" stroke="black" stroke-width="0.706455" stroke-linecap="round" stroke-linejoin="round"/>
<path d="M132.683 108.081H133.305H134.022H134.519L134.823 108.673L135.041 109.154L135.271 109.718L135.526 110.459L135.702 111.064L135.945 111.898V112.605V114.055V117.7L132.683 117.7V111.315V108.081Z" fill="#BCBCBC"/>
<path d="M132.665 108.07L133.522 108.07H134.374L134.6 108.08L134.82 108.581L135.084 109.142L135.27 109.671L135.471 110.27L135.598 110.68L135.784 111.32L135.955 111.898L132.657 111.32L132.665 108.07Z" fill="#0D0D0D"/>
<path d="M136.622 114.016C136.736 113.979 136.784 113.977 136.886 114.006C136.988 114.035 137.037 114.071 137.102 114.133C137.136 114.165 137.216 114.247 137.24 114.287C137.27 114.336 137.444 114.56 137.488 114.634C137.531 114.707 137.736 115.038 137.666 115.151C137.608 115.245 137.65 115.208 137.545 115.26C137.497 115.283 137.405 115.236 137.33 115.222C137.255 115.207 136.922 115.113 136.836 115.093C136.751 115.073 136.565 115.01 136.499 114.958C136.402 114.883 136.378 114.762 136.352 114.636C136.327 114.516 136.352 114.377 136.382 114.284C136.411 114.19 136.409 114.194 136.444 114.145C136.479 114.096 136.508 114.054 136.622 114.016Z" stroke="black" stroke-width="0.706455" stroke-linecap="round" stroke-linejoin="round"/>
<path d="M136.622 114.016C136.736 113.979 136.784 113.977 136.886 114.006C136.988 114.035 137.037 114.071 137.102 114.133C137.136 114.165 137.216 114.247 137.24 114.287C137.27 114.336 137.444 114.56 137.488 114.634C137.531 114.707 137.736 115.038 137.666 115.151C137.608 115.245 137.65 115.208 137.545 115.26C137.497 115.283 137.405 115.236 137.33 115.222C137.255 115.207 136.922 115.113 136.836 115.093C136.751 115.073 136.565 115.01 136.499 114.958C136.402 114.883 136.378 114.762 136.352 114.636C136.327 114.516 136.352 114.377 136.382 114.284C136.411 114.19 136.409 114.194 136.444 114.145C136.479 114.096 136.508 114.054 136.622 114.016Z" fill="white"/>
<path d="M98.2092 110.657C98.2092 110.657 98.3249 111.116 98.3138 111.068C98.3028 111.019 98.4752 112.323 98.4726 112.437L98.4682 112.629C98.4656 112.742 98.4722 113.197 98.4531 113.285C98.434 113.373 98.0181 114.179 98.0181 114.179C97.9318 114.177 97.9565 113.995 97.9591 113.881L98.0298 110.804C98.0312 110.744 98.0394 110.664 98.0833 110.654C98.1272 110.644 98.1682 110.656 98.2092 110.657Z" stroke="black" stroke-width="0.706455" stroke-linecap="round" stroke-linejoin="round"/>
<path d="M98.2092 110.657C98.2092 110.657 98.3249 111.116 98.3138 111.068C98.3028 111.019 98.4752 112.323 98.4726 112.437L98.4682 112.629C98.4656 112.742 98.4722 113.197 98.4531 113.285C98.434 113.373 98.0181 114.179 98.0181 114.179C97.9318 114.177 97.9565 113.995 97.9591 113.881L98.0298 110.804C98.0312 110.744 98.0394 110.664 98.0833 110.654C98.1272 110.644 98.1682 110.656 98.2092 110.657Z" fill="#E80000"/>
<path d="M113.525 104.211L114.97 104.151L116.64 104.134L124.965 104.138L127.862 104.108L129.138 104.095L130.139 104.085C130.139 104.085 130.603 104.106 130.96 104.133C131.317 104.159 131.673 104.165 131.941 104.215C132.208 104.265 132.721 104.441 132.853 104.492C132.985 104.543 133.679 104.806 133.891 104.965C134.102 105.125 134.463 105.395 134.463 105.395L135.118 105.989L109.084 105.587L110.345 105.017L111.53 104.61L112.55 104.357L113.525 104.211Z" stroke="black" stroke-width="1.41291" stroke-linecap="round" stroke-linejoin="round"/>
<path d="M113.525 104.211L114.97 104.151L116.64 104.134L124.965 104.138L127.862 104.108L129.138 104.095L130.139 104.085C130.139 104.085 130.603 104.106 130.96 104.133C131.317 104.159 131.673 104.165 131.941 104.215C132.208 104.265 132.721 104.441 132.853 104.492C132.985 104.543 133.679 104.806 133.891 104.965C134.102 105.125 134.463 105.395 134.463 105.395L135.118 105.989L109.084 105.587L110.345 105.017L111.53 104.61L112.55 104.357L113.525 104.211Z" fill="#BCBCBC"/>
<path d="M119.842 113.729H125.873V117.611H119.842V113.729Z" stroke="#0D0D0D" stroke-width="0.353228" stroke-linecap="round" stroke-linejoin="round"/>
<path d="M119.842 113.729H125.873V117.611H119.842V113.729Z" fill="#BCBCBC"/>
<path d="M123.166 114.207C123.166 114.168 123.135 114.137 123.096 114.137H122.619C122.58 114.137 122.549 114.168 122.549 114.207C122.549 114.246 122.58 114.277 122.619 114.277H123.096C123.135 114.277 123.166 114.246 123.166 114.207Z" stroke="black" stroke-width="0.353228" stroke-linecap="round" stroke-linejoin="round"/>
<path d="M123.166 114.207C123.166 114.168 123.135 114.137 123.096 114.137H122.619C122.58 114.137 122.549 114.168 122.549 114.207C122.549 114.246 122.58 114.277 122.619 114.277H123.096C123.135 114.277 123.166 114.246 123.166 114.207Z" fill="#BCBCBC"/>
<path d="M112.787 110.425H116.134V117.599H112.787V110.425Z" stroke="black" stroke-width="0.706455" stroke-linecap="round" stroke-linejoin="round"/>
<path d="M112.787 110.425H116.134V117.599H112.787V110.425Z" fill="#BCBCBC"/>
<path d="M127.987 106.656L127.954 105.962L127.396 105.99L127.421 106.513L127.613 110.436L128.695 110.517C128.695 110.517 128.612 110.483 128.528 110.378C128.443 110.273 128.453 110.289 128.402 110.186C128.35 110.083 128.331 109.99 128.288 109.791C128.246 109.593 128.178 108.932 128.178 108.932L128.105 108.215L128.012 107.161L127.987 106.656Z" stroke="#ABABAB" stroke-width="0.282582" stroke-linecap="round" stroke-linejoin="round"/>
<path d="M127.987 106.656L127.954 105.962L127.396 105.99L127.421 106.513L127.613 110.436L128.695 110.517C128.695 110.517 128.612 110.483 128.528 110.378C128.443 110.273 128.453 110.289 128.402 110.186C128.35 110.083 128.331 109.99 128.288 109.791C128.246 109.593 128.178 108.932 128.178 108.932L128.105 108.215L128.012 107.161L127.987 106.656Z" fill="#E4E4E4"/>
<path d="M128.571 110.32L129.02 110.417L129.968 110.619L130.625 110.766L131.695 110.989L132.695 111.198L136.001 111.892L136.029 111.935L136.03 111.98L135.986 111.992L135.552 111.945L134.259 111.818L133.34 111.716L132.572 111.624L131.742 111.529L130.794 111.415L129.995 111.304L128.172 111.071L127.974 111.037C127.974 111.037 127.852 111.012 127.773 110.976C127.694 110.939 127.674 110.877 127.667 110.862C127.661 110.847 127.651 110.826 127.634 110.699C127.617 110.572 127.617 110.479 127.617 110.479L127.6 110.244L127.585 110.073L127.792 110.136L128.226 110.242L128.571 110.32Z" stroke="#ABABAB" stroke-width="0.282582" stroke-linecap="round" stroke-linejoin="round"/>
<path d="M128.571 110.32L129.02 110.417L129.968 110.619L130.625 110.766L131.695 110.989L132.695 111.198L136.001 111.892L136.029 111.935L136.03 111.98L135.986 111.992L135.552 111.945L134.259 111.818L133.34 111.716L132.572 111.624L131.742 111.529L130.794 111.415L129.995 111.304L128.172 111.071L127.974 111.037C127.974 111.037 127.852 111.012 127.773 110.976C127.694 110.939 127.674 110.877 127.667 110.862C127.661 110.847 127.651 110.826 127.634 110.699C127.617 110.572 127.617 110.479 127.617 110.479L127.6 110.244L127.585 110.073L127.792 110.136L128.226 110.242L128.571 110.32Z" fill="#E4E4E4"/>
</g>
<mask id="mask12_2591_585" style="mask-type:luminance" maskUnits="userSpaceOnUse" x="0" y="12" width="211" height="134">
<path d="M174.424 136.389C185.981 131.426 196.026 123.605 202.774 111.226C213.314 91.8884 212.736 66.423 201.509 47.576C193.117 33.4875 179.4 25.9564 164.143 25.106C145.267 24.0542 126.836 33.321 108.023 27.4884C97.962 24.3689 89.1445 17.5559 79.0724 14.4779C58.9588 8.33221 34.5443 17.8478 19.1727 32.2222C-17.3463 66.3717 2.04503 127.285 45.8786 139.158C67.3226 144.966 90.1974 145.527 112.458 145.239C131.809 144.989 155.206 144.642 174.424 136.389Z" fill="white"/>
</mask>
<g mask="url(#mask12_2591_585)">
<path d="M50.6916 76.3909C53.0661 74.0155 53.0661 70.1642 50.6916 67.7888C48.317 65.4133 44.4671 65.4133 42.0925 67.7888C39.7179 70.1642 39.7179 74.0155 42.0925 76.3909C44.4671 78.7663 48.317 78.7663 50.6916 76.3909Z" fill="#116872"/>
<path opacity="0.32" d="M50.4133 67.5284C50.6215 68.1421 50.736 68.7989 50.736 69.4828C50.736 72.8422 48.0138 75.5655 44.6555 75.5655C43.1136 75.5655 41.7068 74.9903 40.6348 74.0439C41.4486 76.4443 43.7183 78.1721 46.3925 78.1721C49.7508 78.1721 52.4731 75.4489 52.4731 72.0895C52.4731 70.2728 51.6758 68.6428 50.4133 67.5284Z" fill="#116872"/>
<path d="M37.2726 75.8913C40.2111 75.8913 42.5931 73.5083 42.5931 70.5689C42.5931 67.6294 40.2111 65.2465 37.2726 65.2465C34.3342 65.2465 31.9521 67.6294 31.9521 70.5689C31.9521 73.5083 34.3342 75.8913 37.2726 75.8913Z" fill="#116872"/>
<path opacity="0.32" d="M40.7908 66.5781C40.9729 67.1151 41.073 67.6896 41.073 68.288C41.073 71.2273 38.6912 73.6104 35.7525 73.6104C34.4035 73.6104 33.1722 73.107 32.2344 72.2791C32.9464 74.3792 34.9325 75.8913 37.2726 75.8913C40.2109 75.8913 42.5931 73.5085 42.5931 70.5689C42.5934 68.9791 41.8957 67.5532 40.7908 66.5781Z" fill="#116872"/>
<path d="M48.0503 71.0795C50.7426 68.6088 50.923 64.4226 48.4532 61.7293C45.9834 59.036 41.7986 58.8556 39.1063 61.3263C36.414 63.797 36.2336 67.9832 38.7034 70.6765C41.1732 73.3697 45.358 73.5502 48.0503 71.0795Z" fill="#116872"/>
<path opacity="0.32" d="M47.9528 61.2416C48.1793 61.9092 48.304 62.6238 48.304 63.3678C48.304 67.0227 45.3422 69.9855 41.6886 69.9855C40.0109 69.9855 38.4804 69.3597 37.3145 68.3301C38.2001 70.9413 40.6691 72.8213 43.5787 72.8213C47.2323 72.8213 50.1941 69.8585 50.1941 66.2036C50.1941 64.2273 49.3267 62.4544 47.9528 61.2416Z" fill="#116872"/>
<path d="M40.3124 76.0264V80.4533C40.3124 82.0261 39.5895 84.3217 39.1408 85.5958C40.1988 86.0111 41.928 86.3587 43.9457 85.4914C43.7219 84.0511 43.3528 81.5133 43.3528 80.4533C43.3528 79.6872 43.5457 78.3419 43.7372 77.1954C43.9138 76.1377 44.4982 75.2021 45.3483 74.5783C45.8264 74.2273 46.2754 73.8385 46.669 73.3949L47.1529 72.8497C47.1529 72.8497 43.7757 75.3418 42.5924 75.1306C41.3945 74.9168 38.792 72.0894 38.792 72.0894L39.912 74.3302C40.1756 74.8567 40.3124 75.4375 40.3124 76.0264Z" fill="#331B11"/>
<path opacity="0.23" d="M43.9457 85.4914C43.7218 84.0511 43.3528 81.5133 43.3528 80.4533C43.3528 79.6872 43.5456 78.3419 43.7372 77.1954C43.9137 76.1377 44.4982 75.2021 45.3483 74.5783C45.8263 74.2273 46.2754 73.8386 46.6689 73.3949L47.1529 72.8497C47.1529 72.8497 45.6704 73.9437 44.3255 74.6204C44.2622 74.6625 44.1986 74.704 44.1346 74.7451C43.2454 75.3115 42.6006 76.2066 42.3545 77.2502C42.1228 78.2335 42.068 84.1138 42.0921 85.9902C42.6717 85.9252 43.2937 85.7715 43.9457 85.4914Z" fill="#331B11"/>
</g>
<mask id="mask13_2591_585" style="mask-type:luminance" maskUnits="userSpaceOnUse" x="0" y="12" width="211" height="134">
<path d="M174.424 136.389C185.981 131.426 196.026 123.605 202.774 111.226C213.314 91.8884 212.736 66.423 201.509 47.576C193.117 33.4875 179.4 25.9564 164.143 25.106C145.267 24.0542 126.836 33.321 108.023 27.4884C97.962 24.3689 89.1445 17.5559 79.0724 14.4779C58.9588 8.33221 34.5443 17.8478 19.1727 32.2222C-17.3463 66.3717 2.04503 127.285 45.8786 139.158C67.3226 144.966 90.1974 145.527 112.458 145.239C131.809 144.989 155.206 144.642 174.424 136.389Z" fill="white"/>
</mask>
<g mask="url(#mask13_2591_585)">
<path d="M43.8945 82.7028H43.8323" stroke="#A6A6A6" stroke-width="8.47746" stroke-linecap="round" stroke-linejoin="round"/>
<path d="M48.6393 92.2816C49.4923 92.2816 50.1839 92.9796 50.1839 93.8406C50.1839 94.7017 49.4923 95.3997 48.6393 95.3997C47.7863 95.3997 47.0947 94.7017 47.0947 93.8406C47.0947 92.9796 47.7863 92.2816 48.6393 92.2816Z" fill="#999999"/>
<path d="M48.5648 92.1674C47.6386 92.1674 46.8865 92.9202 46.8865 93.8475C46.8865 94.7748 47.6386 95.5277 48.5648 95.5277C49.4911 95.5277 50.2432 94.7748 50.2432 93.8475C50.2432 92.9202 49.4911 92.1674 48.5648 92.1674Z" stroke="#090909" stroke-width="5.21364" stroke-linecap="round" stroke-linejoin="round"/>
<path d="M27.4615 92.231C28.3878 92.231 29.1399 92.9839 29.1399 93.9112C29.1399 94.8385 28.3878 95.5914 27.4615 95.5914C26.5353 95.5914 25.7832 94.8385 25.7832 93.9112C25.7832 92.9839 26.5353 92.231 27.4615 92.231Z" stroke="#090909" stroke-width="5.21364" stroke-linecap="round" stroke-linejoin="round"/>
<path d="M27.4826 92.6862C28.173 92.6862 28.7328 93.2511 28.7328 93.9481C28.7328 94.645 28.173 95.21 27.4826 95.21C26.7921 95.21 26.2324 94.645 26.2324 93.9481C26.2324 93.2511 26.7921 92.6862 27.4826 92.6862Z" fill="#999999"/>
<path d="M16.9746 83.1071C17.4889 82.669 30.9023 82.897 30.9023 82.897L33.5453 82.9412L41.2918 83.0055H44.9998C44.9998 83.0055 47.1484 83.0114 49.2767 83.0055C51.405 82.9997 51.2758 83.0225 52.2715 83.0055C53.2672 82.9885 53.6323 83.0917 54.1719 83.282C54.7116 83.4722 54.188 83.282 54.188 83.282L55.7665 83.6745L56.3353 83.8218L56.6926 83.895L56.8577 83.9355L57.1351 84.0411L57.3393 84.1788L57.4861 84.3258L57.686 84.6911L57.844 85.1606L57.9768 85.6541L58.0869 86.3054V86.5579L57.9768 86.6819H57.7154L57.5503 86.5579L57.4714 86.4338L57.4084 86.2673L57.3493 86.0633L57.284 85.8462L57.217 85.611L57.0926 85.2293L56.8853 84.7513L56.6559 84.6457L56.4285 84.5327L56.0855 84.4371L55.5751 84.3258L55.0248 84.2589C55.0248 84.2589 56.831 90.0596 56.8599 90.7597C56.9093 91.9574 56.782 94.2352 56.4001 94.6175C56.0183 94.9997 51.0699 94.7927 51.0699 94.7927C51.0699 94.7927 51.4359 91.3043 48.5719 91.2884C45.7079 91.2725 46.0738 94.7927 46.0738 94.7927H29.8974C29.8974 94.7927 30.1974 91.3517 27.3982 91.3599C24.599 91.368 24.8218 94.7449 24.8218 94.7449C24.8218 94.7449 17.4975 94.49 17.1634 94.044C16.9522 93.7622 16.9169 89.6666 17.0494 86.5796C17.0799 85.8674 17.1194 85.2089 17.1677 84.6633C17.1948 84.3572 17.2092 83.9991 17.2163 83.757C17.2234 83.515 17.2477 83.3368 17.2163 83.2228C17.1687 83.0502 16.9311 83.1442 16.9746 83.1071Z" stroke="black" stroke-width="1.41291" stroke-linecap="round" stroke-linejoin="round"/>
<path d="M16.9746 83.1071C17.4889 82.669 30.9023 82.897 30.9023 82.897L33.5453 82.9412L41.2918 83.0055H44.9998C44.9998 83.0055 47.1484 83.0114 49.2767 83.0055C51.405 82.9997 51.2758 83.0225 52.2715 83.0055C53.2672 82.9885 53.6323 83.0917 54.1719 83.282C54.7116 83.4722 54.188 83.282 54.188 83.282L55.7665 83.6745L56.3353 83.8218L56.6926 83.895L56.8577 83.9355L57.1351 84.0411L57.3393 84.1788L57.4861 84.3258L57.686 84.6911L57.844 85.1606L57.9768 85.6541L58.0869 86.3054V86.5579L57.9768 86.6819H57.7154L57.5503 86.5579L57.4714 86.4338L57.4084 86.2673L57.3493 86.0633L57.284 85.8462L57.217 85.611L57.0926 85.2293L56.8853 84.7513L56.6559 84.6457L56.4285 84.5327L56.0855 84.4371L55.5751 84.3258L55.0248 84.2589C55.0248 84.2589 56.831 90.0596 56.8599 90.7597C56.9093 91.9574 56.782 94.2352 56.4001 94.6175C56.0183 94.9997 51.0699 94.7927 51.0699 94.7927C51.0699 94.7927 51.4359 91.3043 48.5719 91.2884C45.7079 91.2725 46.0738 94.7927 46.0738 94.7927H29.8974C29.8974 94.7927 30.1974 91.3517 27.3982 91.3599C24.599 91.368 24.8218 94.7449 24.8218 94.7449C24.8218 94.7449 17.4975 94.49 17.1634 94.044C16.9522 93.7622 16.9169 89.6666 17.0494 86.5796C17.0799 85.8674 17.1194 85.2089 17.1677 84.6633C17.1948 84.3572 17.2092 83.9991 17.2163 83.757C17.2234 83.515 17.2477 83.3368 17.2163 83.2228C17.1687 83.0502 16.9311 83.1442 16.9746 83.1071Z" fill="#BCBCBC"/>
<path d="M46.7529 83.6745L18.6923 83.6904C18.3668 83.6904 18.1181 83.8777 18.1181 84.2354L17.9693 86.9484C17.9693 87.3061 18.1755 87.5874 18.5009 87.5874L46.7529 87.5986L46.7529 86.7862V84.5179L46.7529 83.6745Z" fill="#0D0D0D" fill-opacity="0.999984"/>
<path d="M47.0502 83.6864L48.535 83.7558L49.937 83.7869L50.8215 83.8236L51.5355 83.8589L52.2228 83.9346C52.2228 83.9346 52.8146 84.0392 53.0983 84.3498C53.3036 84.5746 53.501 84.9026 53.7232 85.4008C54.3377 86.7789 55.0977 89.0466 55.0977 89.0466L47.0502 87.7301V83.6864Z" fill="#0D0D0D"/>
<path d="M54.4266 84.4897L54.5689 84.945L54.9108 86.0395L56.2063 90.186L56.3705 90.3908L56.5936 90.591L56.785 90.576L56.7681 90.3598L55.4442 85.7553L55.0181 84.3203L54.7775 84.3391L54.5271 84.4127L54.4266 84.4897Z" stroke="black" stroke-width="0.706455" stroke-linecap="round" stroke-linejoin="round"/>
<path d="M54.4266 84.4897L54.5689 84.945L54.9108 86.0395L56.2063 90.186L56.3705 90.3908L56.5936 90.591L56.785 90.576L56.7681 90.3598L55.4442 85.7553L55.0181 84.3203L54.7775 84.3391L54.5271 84.4127L54.4266 84.4897Z" fill="#0D0D0D"/>
<path d="M51.7529 85.2293H52.3748H53.0925H53.589L53.8932 85.8219L54.1118 86.3031L54.3412 86.8664L54.596 87.6074L54.7723 88.2126L55.0153 89.0467V89.7541V91.204V94.8487L51.7529 94.8487V88.4643V85.2293Z" stroke="black" stroke-width="0.706455" stroke-linecap="round" stroke-linejoin="round"/>
<path d="M51.7529 85.2293H52.3748H53.0925H53.589L53.8932 85.8219L54.1118 86.3031L54.3412 86.8664L54.596 87.6074L54.7723 88.2126L55.0153 89.0467V89.7541V91.204V94.8487L51.7529 94.8487V88.4643V85.2293Z" fill="#BCBCBC"/>
<path d="M51.7354 85.2189L52.5927 85.2189H53.4442L53.6699 85.2293L53.8905 85.7293L54.1547 86.2905L54.3407 86.8194L54.5416 87.419L54.668 87.8286L54.854 88.4692L55.0252 89.0467L51.7275 88.4692L51.7354 85.2189Z" fill="#0D0D0D"/>
<path d="M55.6927 91.1651C55.8068 91.1279 55.8543 91.1256 55.9565 91.1548C56.0586 91.184 56.1076 91.22 56.1725 91.2816C56.2062 91.3136 56.2861 91.3959 56.3104 91.4355C56.3406 91.4849 56.5145 91.709 56.5578 91.7824C56.6012 91.8558 56.8061 92.1866 56.7362 92.3002C56.6788 92.3936 56.7199 92.3564 56.615 92.4085C56.5671 92.4323 56.4749 92.3853 56.4 92.3706C56.3251 92.3558 55.9925 92.2615 55.9059 92.2414C55.8211 92.2218 55.6357 92.1583 55.5696 92.1072C55.4722 92.0317 55.4485 91.9109 55.4223 91.785C55.3973 91.6649 55.422 91.5261 55.4519 91.4324C55.4818 91.3386 55.4789 91.343 55.5143 91.2938C55.5496 91.2445 55.5787 91.2024 55.6927 91.1651Z" stroke="black" stroke-width="0.706455" stroke-linecap="round" stroke-linejoin="round"/>
<path d="M55.6927 91.1651C55.8068 91.1279 55.8543 91.1256 55.9565 91.1548C56.0586 91.184 56.1076 91.22 56.1725 91.2816C56.2062 91.3136 56.2861 91.3959 56.3104 91.4355C56.3406 91.4849 56.5145 91.709 56.5578 91.7824C56.6012 91.8558 56.8061 92.1866 56.7362 92.3002C56.6788 92.3936 56.7199 92.3564 56.615 92.4085C56.5671 92.4323 56.4749 92.3853 56.4 92.3706C56.3251 92.3558 55.9925 92.2615 55.9059 92.2414C55.8211 92.2218 55.6357 92.1583 55.5696 92.1072C55.4722 92.0317 55.4485 91.9109 55.4223 91.785C55.3973 91.6649 55.422 91.5261 55.4519 91.4324C55.4818 91.3386 55.4789 91.343 55.5143 91.2938C55.5496 91.2445 55.5787 91.2024 55.6927 91.1651Z" fill="white"/>
<path d="M17.2796 87.8057C17.2796 87.8057 17.3952 88.2644 17.3841 88.2163C17.3731 88.1683 17.5455 89.4721 17.5429 89.5857L17.5385 89.7773C17.5359 89.8909 17.5425 90.3459 17.5234 90.4337C17.5043 90.5214 17.0884 91.3282 17.0884 91.3282C17.0021 91.3262 17.0268 91.1436 17.0295 91.03L17.1001 87.9525C17.1015 87.8929 17.1097 87.813 17.1536 87.8028C17.1975 87.7927 17.2385 87.8048 17.2796 87.8057Z" stroke="black" stroke-width="0.706455" stroke-linecap="round" stroke-linejoin="round"/>
<path d="M17.2796 87.8057C17.2796 87.8057 17.3952 88.2644 17.3841 88.2163C17.3731 88.1683 17.5455 89.4721 17.5429 89.5857L17.5385 89.7773C17.5359 89.8909 17.5425 90.3459 17.5234 90.4337C17.5043 90.5214 17.0884 91.3282 17.0884 91.3282C17.0021 91.3262 17.0268 91.1436 17.0295 91.03L17.1001 87.9525C17.1015 87.8929 17.1097 87.813 17.1536 87.8028C17.1975 87.7927 17.2385 87.8048 17.2796 87.8057Z" fill="#E80000"/>
<path d="M32.5956 81.3596L34.0405 81.3003L35.7099 81.283L44.0358 81.287L46.9326 81.257L48.2083 81.2438L49.2097 81.2334C49.2097 81.2334 49.6737 81.2553 50.0304 81.2813C50.3871 81.3074 50.7436 81.3136 51.011 81.3636C51.2784 81.4135 51.7918 81.5894 51.9236 81.6405C52.0555 81.6917 52.7494 81.9546 52.9609 82.1141C53.1724 82.2735 53.5333 82.5433 53.5333 82.5433L54.1883 83.138L28.1548 82.736L29.4153 82.1658L30.6002 81.7593L31.6201 81.5061L32.5956 81.3596Z" stroke="black" stroke-width="1.41291" stroke-linecap="round" stroke-linejoin="round"/>
<path d="M32.5956 81.3596L34.0405 81.3003L35.7099 81.283L44.0358 81.287L46.9326 81.257L48.2083 81.2438L49.2097 81.2334C49.2097 81.2334 49.6737 81.2553 50.0304 81.2813C50.3871 81.3074 50.7436 81.3136 51.011 81.3636C51.2784 81.4135 51.7918 81.5894 51.9236 81.6405C52.0555 81.6917 52.7494 81.9546 52.9609 82.1141C53.1724 82.2735 53.5333 82.5433 53.5333 82.5433L54.1883 83.138L28.1548 82.736L29.4153 82.1658L30.6002 81.7593L31.6201 81.5061L32.5956 81.3596Z" fill="#BCBCBC"/>
<path d="M38.9121 90.8774H44.9436V94.7598H38.9121V90.8774Z" stroke="#0D0D0D" stroke-width="0.353228" stroke-linecap="round" stroke-linejoin="round"/>
<path d="M38.9121 90.8774H44.9436V94.7598H38.9121V90.8774Z" fill="#BCBCBC"/>
<path d="M42.2367 91.3558C42.2367 91.3171 42.2053 91.2858 42.1667 91.2858H41.6891C41.6505 91.2858 41.6191 91.3171 41.6191 91.3558C41.6191 91.3944 41.6505 91.4258 41.6891 91.4258H42.1667C42.2053 91.4258 42.2367 91.3944 42.2367 91.3558Z" stroke="black" stroke-width="0.353228" stroke-linecap="round" stroke-linejoin="round"/>
<path d="M42.2367 91.3558C42.2367 91.3171 42.2053 91.2858 42.1667 91.2858H41.6891C41.6505 91.2858 41.6191 91.3171 41.6191 91.3558C41.6191 91.3944 41.6505 91.4258 41.6891 91.4258H42.1667C42.2053 91.4258 42.2367 91.3944 42.2367 91.3558Z" fill="#BCBCBC"/>
<path d="M31.8574 87.5742H35.2048V94.7473H31.8574V87.5742Z" stroke="black" stroke-width="0.706455" stroke-linecap="round" stroke-linejoin="round"/>
<path d="M31.8574 87.5742H35.2048V94.7473H31.8574V87.5742Z" fill="#BCBCBC"/>
<path d="M47.0578 83.8045L47.0242 83.1113L46.4658 83.1384L46.4912 83.6622L46.6837 87.585L47.7653 87.6661C47.7653 87.6661 47.6828 87.6321 47.598 87.527C47.5133 87.422 47.5236 87.4379 47.4719 87.3349C47.4201 87.232 47.4013 87.1387 47.3586 86.9402C47.3158 86.7417 47.2485 86.0811 47.2485 86.0811L47.1754 85.3634L47.0823 84.3103L47.0578 83.8045Z" stroke="#ABABAB" stroke-width="0.282582" stroke-linecap="round" stroke-linejoin="round"/>
<path d="M47.0578 83.8045L47.0242 83.1113L46.4658 83.1384L46.4912 83.6622L46.6837 87.585L47.7653 87.6661C47.7653 87.6661 47.6828 87.6321 47.598 87.527C47.5133 87.422 47.5236 87.4379 47.4719 87.3349C47.4201 87.232 47.4013 87.1387 47.3586 86.9402C47.3158 86.7417 47.2485 86.0811 47.2485 86.0811L47.1754 85.3634L47.0823 84.3103L47.0578 83.8045Z" fill="#E4E4E4"/>
<path d="M47.6415 87.469L48.0905 87.5656L49.0381 87.7683L49.6955 87.915L50.7658 88.1381L51.765 88.3465L55.0716 89.0408L55.0989 89.0833L55.1007 89.1289L55.0564 89.1409L54.6228 89.0936L53.3288 88.9666L52.4107 88.8653L51.6424 88.7723L50.8124 88.6779L49.8638 88.5636L49.0651 88.4526L47.2427 88.2197L47.0439 88.1859C47.0439 88.1859 46.9228 88.1612 46.8434 88.1247C46.764 88.0881 46.7445 88.0262 46.7377 88.0108C46.7309 87.9954 46.7209 87.9751 46.7041 87.8481C46.6873 87.721 46.6871 87.6278 46.6871 87.6278L46.6699 87.393L46.6553 87.2219L46.8624 87.2849L47.2959 87.3911L47.6415 87.469Z" stroke="#ABABAB" stroke-width="0.282582" stroke-linecap="round" stroke-linejoin="round"/>
<path d="M47.6415 87.469L48.0905 87.5656L49.0381 87.7683L49.6955 87.915L50.7658 88.1381L51.765 88.3465L55.0716 89.0408L55.0989 89.0833L55.1007 89.1289L55.0564 89.1409L54.6228 89.0936L53.3288 88.9666L52.4107 88.8653L51.6424 88.7723L50.8124 88.6779L49.8638 88.5636L49.0651 88.4526L47.2427 88.2197L47.0439 88.1859C47.0439 88.1859 46.9228 88.1612 46.8434 88.1247C46.764 88.0881 46.7445 88.0262 46.7377 88.0108C46.7309 87.9954 46.7209 87.9751 46.7041 87.8481C46.6873 87.721 46.6871 87.6278 46.6871 87.6278L46.6699 87.393L46.6553 87.2219L46.8624 87.2849L47.2959 87.3911L47.6415 87.469Z" fill="#E4E4E4"/>
</g>
<mask id="mask14_2591_585" style="mask-type:luminance" maskUnits="userSpaceOnUse" x="0" y="12" width="211" height="134">
<path d="M174.424 136.389C185.981 131.426 196.026 123.605 202.774 111.226C213.314 91.8884 212.736 66.423 201.509 47.5759C193.117 33.4875 179.4 25.9563 164.143 25.106C145.267 24.0541 126.836 33.321 108.023 27.4884C97.962 24.3688 89.1445 17.5559 79.0724 14.4778C58.9588 8.33216 34.5443 17.8477 19.1727 32.2222C-17.3463 66.3717 2.04503 127.285 45.8786 139.157C67.3226 144.966 90.1974 145.527 112.458 145.239C131.809 144.988 155.206 144.642 174.424 136.389Z" fill="white"/>
</mask>
<g mask="url(#mask14_2591_585)">
<path d="M18.6479 91.8803C20.7203 89.8071 20.7203 86.4459 18.6479 84.3728C16.5755 82.2996 13.2155 82.2996 11.1431 84.3728C9.07064 86.4459 9.07065 89.8071 11.1431 91.8803C13.2155 93.9534 16.5755 93.9534 18.6479 91.8803Z" fill="#116872"/>
<path opacity="0.32" d="M18.4053 84.1461C18.5871 84.6814 18.6869 85.2547 18.6869 85.8517C18.6869 88.7836 16.3109 91.1604 13.3801 91.1604C12.0343 91.1604 10.8067 90.6583 9.87109 89.8324C10.5815 91.9272 12.562 93.4354 14.8963 93.4354C17.827 93.4354 20.203 91.0586 20.203 88.1267C20.203 86.5412 19.5073 85.1185 18.4053 84.1461Z" fill="#116872"/>
<path d="M6.93632 91.4447C9.50078 91.4447 11.5797 89.3651 11.5797 86.7997C11.5797 84.2344 9.50078 82.1547 6.93632 82.1547C4.37187 82.1547 2.29297 84.2344 2.29297 86.7997C2.29297 89.3651 4.37187 91.4447 6.93632 91.4447Z" fill="#116872"/>
<path opacity="0.32" d="M10.0065 83.3165C10.1654 83.785 10.2529 84.2867 10.2529 84.8091C10.2529 87.3743 8.17381 89.4541 5.60951 89.4541C4.43211 89.4541 3.3575 89.0147 2.53906 88.2922C3.16072 90.1252 4.89386 91.4447 6.93604 91.4447C9.50067 91.4447 11.5794 89.3649 11.5794 86.7997C11.5797 85.412 10.9708 84.1676 10.0065 83.3165Z" fill="#116872"/>
<path d="M18.1337 83.9451C18.6595 80.7991 16.5363 77.8224 13.3914 77.2964C10.2465 76.7704 7.27081 78.8944 6.74501 82.0404C6.21921 85.1864 8.34241 88.1631 11.4873 88.6891C14.6322 89.2151 17.6079 87.0911 18.1337 83.9451Z" fill="#116872"/>
<path opacity="0.32" d="M16.2574 78.6591C16.4548 79.2418 16.5638 79.8654 16.5638 80.515C16.5638 83.7047 13.979 86.2905 10.7904 86.2905C9.32648 86.2905 7.99048 85.7443 6.97266 84.8459C7.74541 87.1249 9.90049 88.7659 12.44 88.7659C15.6286 88.7659 18.2134 86.1801 18.2134 82.9904C18.2134 81.2648 17.4564 79.7175 16.2574 78.6591Z" fill="#116872"/>
<path d="M9.58891 91.5626V95.4264C9.58891 96.7991 8.95811 98.8025 8.56651 99.9144C9.49003 100.277 10.999 100.58 12.7599 99.8233C12.5647 98.5665 12.2423 96.3515 12.2423 95.4264C12.2423 94.7578 12.4107 93.5836 12.5778 92.583C12.7321 91.6599 13.2422 90.8434 13.9839 90.2989C14.401 89.9927 14.7929 89.6532 15.1365 89.2664L15.5588 88.7907C15.5588 88.7907 12.6114 90.9658 11.5785 90.7814C10.5333 90.595 8.26172 88.1271 8.26172 88.1271L9.23908 90.0825C9.46947 90.5418 9.58891 91.0487 9.58891 91.5626Z" fill="#331B11"/>
<path opacity="0.23" d="M12.7609 99.8233C12.5658 98.5665 12.2434 96.3515 12.2434 95.4264C12.2434 94.7578 12.4117 93.5836 12.5788 92.5831C12.7332 91.6599 13.2432 90.8434 13.985 90.2989C14.402 89.9927 14.794 89.6532 15.1376 89.2664L15.5599 88.7907C15.5599 88.7907 14.266 89.7453 13.0925 90.3361C13.0373 90.373 12.9818 90.4092 12.9257 90.4448C12.1494 90.9394 11.5868 91.7202 11.3721 92.6314C11.1697 93.4896 11.1221 98.6213 11.1433 100.259C11.6488 100.202 12.1915 100.068 12.7609 99.8233Z" fill="#331B11"/>
</g>
<mask id="mask15_2591_585" style="mask-type:luminance" maskUnits="userSpaceOnUse" x="31" y="0" width="201" height="159">
<path d="M197.508 147.416C208.517 141.508 218.087 132.197 224.515 117.461C234.557 94.4399 234.007 64.1241 223.311 41.6873C215.316 24.9155 202.248 15.9499 187.713 14.9375C169.73 13.6854 152.171 24.7173 134.249 17.7737C124.663 14.06 116.263 5.94945 106.668 2.28512C87.5058 -5.03111 64.2466 6.29689 49.6024 23.4092C14.8115 64.0631 33.2852 136.578 75.0446 150.712C95.4739 157.627 117.266 158.295 138.474 157.952C156.909 157.654 179.199 157.241 197.508 147.416Z" fill="white"/>
</mask>
<g mask="url(#mask15_2591_585)">
<path d="M215.59 106.133C207.73 101.936 194.913 87.3151 191.2 85.1627C190.246 84.6093 176.82 82.9131 172.488 82.3772C171.607 82.2681 170.715 82.3388 169.862 82.5842L150.161 88.2611L169.514 102.987L202.139 119.009C202.139 119.009 219.809 108.386 215.59 106.133Z" fill="#F9AF9A"/>
<path d="M148.277 94.0338C148.277 94.0338 147.12 101.345 150.962 104.95C152.121 106.038 153.852 106.236 155.254 105.486C156.925 104.593 159.147 103.009 159.83 100.662C160.968 96.7474 148.277 94.0338 148.277 94.0338Z" fill="#F9AF9A"/>
<path opacity="0.1" d="M148.277 94.0338C148.277 94.0338 147.12 101.345 150.962 104.95C152.121 106.038 153.852 106.236 155.254 105.486C156.925 104.593 159.147 103.009 159.83 100.662C160.968 96.7474 148.277 94.0338 148.277 94.0338Z" fill="#F9AF9A"/>
<path d="M159.034 98.474C159.034 98.474 158.205 103.72 160.286 107.516C161.675 110.049 164.984 110.745 167.364 109.106C168.717 108.175 170.079 106.85 170.588 105.103C171.726 101.188 159.034 98.474 159.034 98.474Z" fill="#F9AF9A"/>
<path opacity="0.1" d="M159.034 98.474C159.034 98.474 158.205 103.72 160.286 107.516C161.675 110.049 164.984 110.745 167.364 109.106C168.717 108.175 170.079 106.85 170.588 105.103C171.726 101.188 159.034 98.474 159.034 98.474Z" fill="#F9AF9A"/>
<path d="M182.626 118.624L133.103 83.1699L138.338 75.8524L187.861 111.307C189.881 112.753 190.347 115.564 188.901 117.584C187.456 119.605 184.646 120.071 182.626 118.624Z" fill="#BCBDD8"/>
<path d="M105.399 28.5696C115.116 28.5696 124.343 32.7735 130.715 40.1039C136.591 46.8649 139.484 55.5105 138.86 64.4481C138.237 73.3857 134.171 81.5455 127.412 87.4239C121.31 92.7315 113.502 95.6544 105.428 95.6544C95.7083 95.6544 86.48 91.4504 80.1088 84.1201C74.2325 77.359 71.3397 68.713 71.9636 59.7754C72.5874 50.8378 76.6532 42.678 83.4118 36.7996C89.5133 31.4928 97.3208 28.5703 105.399 28.5696ZM105.395 24.7132C96.6986 24.7139 87.9598 27.7331 80.8813 33.89C65.3 47.4424 63.6514 71.0643 77.1986 86.6511C84.5915 95.1569 94.9797 99.5115 105.427 99.5115C114.124 99.5115 122.863 96.4916 129.941 90.3347C145.522 76.7823 147.171 53.1604 133.624 37.574C126.231 29.0678 115.843 24.7124 105.395 24.7132Z" fill="#664B18"/>
<path d="M180.717 119.112L138.724 89.6373L145.898 79.3266L187.93 108.828C190.762 110.816 191.453 114.719 189.477 117.559C187.49 120.413 183.563 121.11 180.717 119.112Z" fill="#AC9280"/>
<path opacity="0.15" d="M130.149 87.3259C144.749 72.7211 144.749 49.0419 130.149 34.4371C115.549 19.8322 91.8785 19.8322 77.2788 34.4371C62.6791 49.0419 62.6791 72.7211 77.2788 87.3259C91.8785 101.931 115.549 101.931 130.149 87.3259Z" fill="white"/>
<path opacity="0.15" d="M83.4241 36.7286C75.9946 43.1902 72.2894 52.3387 72.487 61.4704C72.5658 65.1218 74.8355 68.2967 78.2457 69.5999C88.8776 73.6622 101.343 71.8786 110.531 63.8869C118.249 57.1744 121.948 47.5631 121.428 38.0822C121.266 35.1384 119.435 32.5673 116.72 31.4218C105.875 26.8462 92.905 28.4822 83.4241 36.7286Z" fill="white"/>
<path d="M103.702 23.4818V28.7137C113.021 28.7137 121.871 32.7452 127.981 39.775C133.616 46.2588 136.391 54.5502 135.792 63.1212C135.194 71.6923 131.295 79.5177 124.813 85.1554C118.961 90.2451 111.474 93.0484 103.731 93.0484C94.4092 93.0484 85.559 89.0164 79.449 81.987C67.8151 68.602 69.2363 48.2447 82.6162 36.6067C88.4672 31.5174 95.9549 28.7145 103.699 28.7137L103.702 23.4818ZM103.699 23.4818C95.0023 23.4826 86.2635 26.5018 79.185 32.6586C63.6037 46.211 61.9551 69.833 75.5023 85.4198C82.8953 93.9256 93.2834 98.2802 103.731 98.2802C112.427 98.2802 121.166 95.2602 128.245 89.1034C143.826 75.551 145.475 51.9291 131.927 36.3422C124.535 27.8365 114.147 23.4811 103.699 23.4818Z" fill="#AC9280"/>
<g opacity="0.5">
<path d="M189.477 117.559C190.932 115.468 190.936 112.804 189.71 110.749C189.529 111.239 189.291 111.716 188.979 112.164C186.992 115.019 183.065 115.715 180.219 113.717L141.082 86.2476L138.724 89.6369L180.717 119.112C183.563 121.11 187.49 120.413 189.477 117.559Z" fill="#AC9280"/>
</g>
<path opacity="0.13" d="M123.292 39.4899C126.986 43.3304 129.661 48.2365 130.763 53.8547C133.819 69.4268 123.677 84.5282 108.11 87.5847C99.6133 89.2529 91.2619 86.9816 84.9268 82.0476C91.4708 88.8514 101.223 92.2977 111.173 90.3441C126.74 87.2876 136.882 72.1862 133.826 56.6141C132.439 49.5416 128.562 43.5953 123.292 39.4899Z" fill="#AD8960"/>
<path d="M77.9287 53.2664C77.9287 53.2664 83.1323 34.0534 106.685 34.083" stroke="white" stroke-width="8.8278" stroke-miterlimit="10" stroke-linecap="round"/>
<path d="M190.699 105.81L174.795 96.1176C173.743 95.4761 172.562 95.0734 171.338 94.9379L156.031 93.2436C153.932 93.0114 152.467 95.2932 153.569 97.095C155.223 99.7973 157.823 102.979 161.373 104.205C168.03 106.505 172.685 110.342 177.656 115.306C182.626 120.27 194.062 123.551 200.912 122.366C211.124 120.6 221.897 128.643 230.055 135.743C238.213 142.844 244.039 128.975 244.039 128.975L247.546 122.234C247.546 122.234 210.453 104.274 204.964 99.3655C199.475 94.4564 190.699 105.81 190.699 105.81Z" fill="#F9AF9A"/>
<path opacity="0.7" d="M188.93 99.2964L174.795 96.1176L167.541 94.5174L161.32 90.1515H174.303C174.303 90.1515 185.29 96.5378 188.93 99.2964Z" fill="#F9AF9A"/>
<path opacity="0.3" d="M246.187 121.59C246.187 121.59 241.423 135.858 232.753 129.393C224.083 122.928 212.735 115.72 202.685 118.252C195.944 119.95 184.293 117.54 178.963 112.965C173.633 108.39 168.702 104.916 161.89 103.124C158.258 102.169 155.425 99.1931 153.573 96.6232C153.397 96.3789 153.278 96.1203 153.199 95.8578C153.212 96.2721 153.324 96.695 153.569 97.0946C155.222 99.7969 157.822 102.978 161.372 104.205C168.03 106.505 172.685 110.341 177.655 115.305C182.625 120.269 194.061 123.55 200.911 122.366C211.123 120.6 221.896 128.643 230.054 135.743C238.212 142.843 244.038 128.975 244.038 128.975L247.544 122.234C247.544 122.234 247.057 121.998 246.193 121.576L246.187 121.59Z" fill="#F9AF9A"/>
</g>
<path d="M107.262 114.793C112.548 114.793 116.834 110.505 116.834 105.217C116.834 99.9284 112.548 95.6412 107.262 95.6412C101.975 95.6412 97.6895 99.9284 97.6895 105.217C97.6895 110.505 101.975 114.793 107.262 114.793Z" fill="#116872"/>
<path opacity="0.32" d="M113.591 98.0364C113.919 99.0023 114.099 100.036 114.099 101.113C114.099 106.402 109.813 110.689 104.527 110.689C102.1 110.689 99.8847 109.783 98.1973 108.294C99.4788 112.072 103.051 114.793 107.262 114.793C112.548 114.793 116.834 110.505 116.834 105.217C116.834 102.357 115.579 99.791 113.591 98.0364Z" fill="#116872"/>
<path d="M99.2676 108.259C102.273 104.742 101.86 99.4525 98.3437 96.4455C94.8275 93.4385 89.5404 93.8523 86.5345 97.3697C83.5286 100.887 83.9422 106.176 87.4583 109.183C90.9745 112.19 96.2617 111.776 99.2676 108.259Z" fill="#116872"/>
<path opacity="0.32" d="M98.4416 96.5399C98.7281 97.3851 98.8861 98.29 98.8861 99.2321C98.8861 103.86 95.1362 107.611 90.5102 107.611C88.3861 107.611 86.4483 106.819 84.9717 105.515C86.093 108.821 89.2192 111.202 92.9032 111.202C97.5289 111.202 101.279 107.451 101.279 102.823C101.279 100.32 100.181 98.0752 98.4416 96.5399Z" fill="#116872"/>
<path d="M102.83 106.37C108.581 106.37 113.244 101.706 113.244 95.9517C113.244 90.1979 108.581 85.5335 102.83 85.5335C97.0778 85.5335 92.415 90.1979 92.415 95.9517C92.415 101.706 97.0778 106.37 102.83 106.37Z" fill="#116872"/>
<path opacity="0.32" d="M109.716 88.1392C110.072 89.19 110.269 90.3149 110.269 91.4866C110.269 97.2402 105.606 101.905 99.854 101.905C97.213 101.905 94.8034 100.92 92.9678 99.2991C94.3619 103.41 98.2491 106.37 102.829 106.37C108.581 106.37 113.244 101.706 113.244 95.9517C113.244 92.8397 111.879 90.0482 109.716 88.1392Z" fill="#116872"/>
<path d="M97.6889 111.414V118.383C97.6889 120.86 96.551 124.474 95.8445 126.479C97.5104 127.133 100.232 127.68 103.408 126.315C103.056 124.048 102.475 120.052 102.475 118.383C102.475 117.177 102.779 115.059 103.08 113.255C103.358 111.589 104.278 110.117 105.616 109.135C106.369 108.582 107.076 107.97 107.696 107.272L108.458 106.414C108.458 106.414 103.141 110.337 101.279 110.005C99.393 109.668 95.2959 105.217 95.2959 105.217L97.0587 108.744C97.4732 109.573 97.6889 110.487 97.6889 111.414Z" fill="#331B11"/>
<path opacity="0.23" d="M103.409 126.315C103.057 124.048 102.475 120.053 102.475 118.384C102.475 117.178 102.779 115.06 103.08 113.255C103.358 111.59 104.278 110.117 105.617 109.135C106.369 108.583 107.076 107.97 107.696 107.272L108.458 106.414C108.458 106.414 106.124 108.136 104.007 109.201C103.908 109.268 103.808 109.333 103.707 109.398C102.307 110.29 101.292 111.698 100.905 113.341C100.54 114.889 100.454 124.147 100.492 127.101C101.403 126.998 102.382 126.756 103.409 126.315Z" fill="#331B11"/>
<g clip-path="url(#clip0_2591_585)">
<path d="M96.6531 76.6107L96.6533 76.611C96.4288 76.7355 96.0997 76.8014 95.8177 76.8384C95.5136 76.8783 95.1747 76.8951 94.88 76.8834C94.733 76.8775 94.5864 76.8642 94.4554 76.8397C94.3414 76.8183 94.1739 76.7775 94.035 76.6796C93.9601 76.6268 93.8541 76.5296 93.8021 76.3717C93.7455 76.1995 93.7798 76.0378 93.8408 75.9195C93.9394 75.7282 94.125 75.6108 94.2489 75.5414L94.2499 75.5409L94.2499 75.5409C99.9445 72.3714 105.892 69.3177 112.075 66.3889C112.336 66.2645 112.683 66.1815 113.015 66.1362C113.352 66.0901 113.723 66.0764 114.042 66.1179L113.98 66.5938C113.984 66.5918 113.989 66.5899 113.993 66.5879L113.994 66.5873C114.025 66.573 114.036 66.5646 114.036 66.5646C114.036 66.5645 114.021 66.5756 114.001 66.6014C114.001 66.6014 114.001 66.6014 114.001 66.6014C114.001 66.6015 114.001 66.6016 114 66.6017C114 66.602 114 66.6023 114 66.6025C113.997 66.6063 113.994 66.6106 113.99 66.6154C113.996 66.6161 114.001 66.6169 114.007 66.6177C114.007 66.6178 114.008 66.6178 114.008 66.6179C114.465 66.6841 114.57 66.8695 114.207 67.0399C114.152 67.0655 114.098 67.091 114.044 67.1166C114.054 67.1255 114.062 67.1318 114.068 67.1358C114.08 67.1445 114.088 67.1481 114.088 67.1481C114.088 67.1481 114.086 67.1474 114.083 67.1462C114.072 67.1417 114.052 67.1351 114.02 67.128C107.913 70.0198 102.042 73.0364 96.4194 76.1686L96.6531 76.6107ZM96.6531 76.6107C102.326 73.4505 108.252 70.4079 114.42 67.4922C114.54 67.4359 114.685 67.3503 114.79 67.2155C114.846 67.1428 114.903 67.0405 114.92 66.9108C114.938 66.7749 114.908 66.6463 114.848 66.5397C114.742 66.3509 114.563 66.261 114.455 66.2179C114.33 66.1678 114.187 66.1366 114.042 66.1178L113.98 66.5938C113.969 66.5992 113.958 66.6045 113.946 66.6099M96.6531 76.6107L113.946 66.6099M113.946 66.6099C113.422 66.5496 112.671 66.6578 112.289 66.8408L113.946 66.6099ZM94.6731 76.455C94.673 76.455 94.6735 76.4546 94.6746 76.4537C94.6736 76.4546 94.6731 76.455 94.6731 76.455Z" fill="#FF6900" stroke="#FF6900"/>
<mask id="path-172-outside-1_2591_585" maskUnits="userSpaceOnUse" x="92.3271" y="65.9882" width="25" height="11" fill="black">
<rect fill="white" x="92.3271" y="65.9882" width="25" height="11"/>
<path d="M93.4535 67.5688L113.631 75.7631C114.058 75.9373 114.744 75.8782 115.214 75.7756C115.449 75.7258 116.278 75.4676 115.851 75.2934L95.668 67.099C95.2412 66.9248 94.5546 66.9839 94.0845 67.0866C93.8494 67.1363 93.0205 67.3946 93.4473 67.5688H93.4535Z"/>
</mask>
<path d="M93.4535 67.5688L113.631 75.7631C114.058 75.9373 114.744 75.8782 115.214 75.7756C115.449 75.7258 116.278 75.4676 115.851 75.2934L95.668 67.099C95.2412 66.9248 94.5546 66.9839 94.0845 67.0866C93.8494 67.1363 93.0205 67.3946 93.4473 67.5688H93.4535Z" fill="#FF6900"/>
<path d="M93.4535 67.5688L93.8298 66.6423L93.6488 66.5688H93.4535V67.5688ZM113.631 75.7631L114.009 74.8373L114.007 74.8366L113.631 75.7631ZM115.214 75.7756L115.007 74.7972L115.001 74.7986L115.214 75.7756ZM115.851 75.2934L116.229 74.3675L116.228 74.3668L115.851 75.2934ZM95.668 67.099L95.2901 68.0249L95.2918 68.0256L95.668 67.099ZM94.0845 67.0866L94.2916 68.0649L94.2978 68.0635L94.0845 67.0866ZM93.4473 67.5688L93.0694 68.4946L93.2511 68.5688H93.4473V67.5688ZM93.0773 68.4953L113.255 76.6896L114.007 74.8366L93.8298 66.6423L93.0773 68.4953ZM113.253 76.689C113.651 76.8512 114.087 76.8799 114.427 76.873C114.785 76.8656 115.139 76.8155 115.428 76.7525L115.001 74.7986C114.819 74.8383 114.595 74.8691 114.386 74.8734C114.158 74.8781 114.038 74.8492 114.009 74.8373L113.253 76.689ZM115.422 76.7539C115.591 76.7181 115.946 76.618 116.232 76.4737C116.309 76.4349 116.409 76.3787 116.509 76.3019C116.591 76.2392 116.773 76.0879 116.883 75.8315C117.03 75.4919 116.998 75.087 116.759 74.7653C116.579 74.5237 116.344 74.4142 116.229 74.3675L115.474 76.2192C115.466 76.216 115.298 76.1528 115.154 75.9588C115.071 75.8472 114.997 75.6933 114.977 75.5049C114.957 75.3183 114.996 75.1574 115.047 75.0389C115.136 74.832 115.272 74.7305 115.29 74.7168C115.326 74.6891 115.345 74.681 115.33 74.6885C115.249 74.7293 115.073 74.7833 115.007 74.7972L115.422 76.7539ZM116.228 74.3668L96.0441 66.1725L95.2918 68.0256L115.475 76.2199L116.228 74.3668ZM96.0459 66.1732C95.6483 66.0109 95.2116 65.9822 94.8719 65.9892C94.5138 65.9965 94.1595 66.0466 93.8711 66.1096L94.2978 68.0635C94.4795 68.0239 94.7036 67.9931 94.913 67.9887C95.1408 67.9841 95.2608 68.0129 95.2901 68.0249L96.0459 66.1732ZM93.8773 66.1083C93.7082 66.1441 93.3526 66.2441 93.0669 66.3884C92.9901 66.4272 92.8894 66.4835 92.7896 66.5602C92.7081 66.6229 92.5263 66.7742 92.4157 67.0306C92.2691 67.3702 92.3009 67.7751 92.5401 68.0968C92.7198 68.3385 92.955 68.4479 93.0694 68.4946L93.8253 66.6429C93.833 66.6461 94.0007 66.7093 94.145 66.9033C94.228 67.0149 94.3016 67.1689 94.3218 67.3573C94.3418 67.5439 94.303 67.7047 94.2519 67.8232C94.1626 68.0301 94.027 68.1316 94.0092 68.1453C93.9732 68.173 93.9537 68.1811 93.9685 68.1736C94.0494 68.1328 94.2256 68.0788 94.2916 68.0649L93.8773 66.1083ZM93.4473 68.5688H93.4535V66.5688H93.4473V68.5688Z" fill="#FF6900" mask="url(#path-172-outside-1_2591_585)"/>
</g>
<defs>
<clipPath id="clip0_2591_585">
<rect width="22.6392" height="9.79339" fill="white" transform="translate(93.3301 66.595)"/>
</clipPath>
</defs>
</svg>
